<svg version="1" xmlns="http://www.w3.org/2000/svg" width="350.667" height="350.667" viewBox="0 0 263.000000 263.000000"><path d="M.3 30.9c.1 2.1.9 4.7 1.7 5.7 1.4 1.8 1.4 1.8-.2.5C.2 35.9 0 36 0 37.9c0 1.4.4 2 1.2 1.5.7-.5.8-.3.2.7-.5.8-1 2.5-1.2 3.7-.2 1.7.1 2.2 1 1.6 1-.6 1-.5.1.7-1.5 1.8-1.4 17.9.1 19.8.8 1.1.8 1.3-.1.8-1.8-1.1-1.3 3.4.6 5.8 1.5 1.8 1.5 1.9-.1.6C.2 71.9 0 72 0 73.9c0 1.4.4 2 1.2 1.5.7-.5.8-.3.2.7-1.4 2.3-1.7 6.2-.3 5.3.8-.5.9-.3.3.7-1.2 2-1.7 10.2-.5 9.5.5-.4 1.3-.2 1.6.4.4.6.1.9-.7.8-1.6-.4-2 13-.4 15.1.8 1.1.8 1.3-.1.7-.9-.5-1.3 0-1.3 1.5 0 1.9.2 2 1.8.8 1.6-1.3 1.6-1.2.1.6-1.3 1.6-1.6 4.4-1.6 13.3-.1 10.2.1 11.1 1.6 10 1.5-1.2 1.5-1.1 0 .7C.6 137.1.2 139.9.2 149c0 7.3.4 12 1.1 12.9.8 1 .8 1.3.1.8-.8-.4-1.1 1.8-1.1 7.3-.1 5.3.3 7.8 1 7.3.6-.4.7-.1.1.8-1.2 2-1.7 10.2-.5 9.5.5-.4 1.3-.2 1.6.4.4.6.1.9-.7.8-1.6-.4-2 13-.4 15.1.8 1.1.8 1.3-.1.7-.9-.5-1.3 0-1.3 1.5 0 1.9.2 2 1.8.8 1.6-1.3 1.6-1.2.1.6-1.9 2.4-2.6 19.1-.7 17.9.7-.5.8-.3.2.7-.5.8-1 3.2-1.1 5.4l-.3 4.1 5 .1c3.7.2 4.9-.1 4.3-1-.5-.9-.3-.9.9 0 1.8 1.6 9.7 1.5 11.7-.1 1.1-.8 1.3-.8.7.2-.5.8 0 1.2 1.4 1.2s1.9-.4 1.4-1.3c-.6-.9-.5-.9.7 0 1.8 1.5 12 1.4 11.2-.1-.3-.6 0-.5.8.1 1.8 1.8 8.3 1.8 7.3 0-.6-.9-.4-.9.7-.1 2 1.6 13.8 1.7 15.7.2 1.3-1 1.4-1 .8-.1-.5.9 0 1.3 1.4 1.3s1.9-.4 1.4-1.3c-.6-.9-.5-.9.7 0 2 1.6 20.1 1.4 19.2-.1-.3-.6 0-.5.8.2 1.8 1.6 8.3 1.6 7.3-.1-.6-.9-.4-.9.7.1 1.7 1.6 6.1 1.6 7.8-.1 1.1-.9 1.3-.9.7 0-.5.9 0 1.3 1.4 1.3s1.9-.4 1.4-1.3c-.6-.9-.5-.9.7 0 1.8 1.4 16 1.3 15.2-.2-.3-.5 0-.4.8.2.7.7 2.5 1.3 3.9 1.3s3.2-.6 3.9-1.3c1.1-1 1.3-1 .7 0-.5.9 0 1.3 1.4 1.3s1.9-.4 1.4-1.3c-.6-1-.4-1 .7 0 1.8 1.8 8.3 1.8 7.3.1-.6-1-.4-1 .7-.2 2 1.6 13.8 1.7 15.7.2 1.3-1 1.4-1 .8-.1-.5.9 0 1.3 1.4 1.3s1.9-.4 1.4-1.3c-.6-.9-.5-.9.7 0 2.1 1.7 20.2 1.7 19.3 0-.5-.9-.4-.9.7 0 1.7 1.7 8.3 1.8 7.3.1-.5-.7-.3-.8.7-.2 2.2 1.4 12 1.5 11.3.1-.5-.8-.2-.7.7 0 1.8 1.8 16.3 1.8 15.3.1-.6-1-.5-1 .7-.1 1.8 1.5 12 1.4 11.2-.1-.3-.6 0-.5.8.1.7.7 2.8 1.3 4.7 1.3 2.4 0 3.1-.3 2.6-1.3-.6-.9-.5-.9.7-.1 1.9 1.6 20 1.5 19.2 0-.3-.6 0-.5.8.1 2.2 2.1 4.4 1.5 4.7-1.2.1-1.4-.4-2.5-1.1-2.5-.9 0-.9-.2 0-.8 1.4-.9 1.4-5.1-.1-7.1-.8-1.1-.8-1.3.2-.7 1.6.9 1.4-5.2-.2-7.3-.8-1.1-.8-1.3.2-.7 1.6.9 1.4-5.2-.2-7.3-.8-1.1-.8-1.3.2-.7 1.6.9 1.4-5.2-.2-7.3-.8-1.1-.8-1.3.2-.7 1.6.9 1.4-5.2-.2-7.3-.8-1.1-.8-1.3.1-.8.9.6 1.2-.2 1.1-2.8-.1-2-.5-3.8-1-4.1-.4-.3-.8-1.1-.8-1.7 0-.7.4-.6 1 .3.7 1.1.9.5.8-2.3-.1-2.1-.5-4-1-4.3-.4-.3-.8-1.1-.8-1.7 0-.7.4-.6 1 .3.7 1.1.9.5.8-2.3-.1-2.1-.5-4-1-4.3-.4-.3-.8-1.1-.8-1.7 0-.7.4-.6 1 .3.7 1.1.9.5.8-2.3-.1-2.1-.5-4-1-4.3-.4-.3-.8-1.1-.8-1.7 0-.8.3-.8.9.2.5.7.9-21 .9-49.9 0-30.1-.4-50.7-.9-49.9-.6.9-.9 1-.9.2 0-.6.4-1.4.8-1.7.5-.3.9-2.2 1-4.3.1-2.8-.1-3.4-.8-2.3-.6.9-1 1-1 .3 0-.6.4-1.4.8-1.7.5-.3.9-2.2 1-4.3.1-2.8-.1-3.4-.8-2.3-.6.9-1 1-1 .3 0-.6.4-1.4.8-1.7.5-.3.9-2.2 1-4.3.1-2.8-.1-3.4-.8-2.3-.6.9-1 1-1 .3 0-.6.4-1.4.9-1.7.5-.3.9-1.7.9-3.1 0-2-.5-2.5-2.7-2.5-1.5 0-3.3.6-4 1.2-1.1 1-1.3 1-.7 0 1.1-1.9-6.4-1.5-8.8.5-2 1.7-2 1.7-.7 0 1.2-1.5 1.1-1.7-.8-1.7-1.5 0-2 .4-1.5 1.2.6 1 .4 1-.7 0-.7-.6-2.5-1.2-3.9-1.2s-3.2.6-3.9 1.2c-1.1 1-1.3 1-.7 0 .6-.9-4.2-1.2-22.5-1.2-20.7 0-23.5.2-25.3 1.7-2 1.7-2 1.7-.7 0 1.2-1.6.9-1.7-3.9-1.7-3.6 0-6 .6-7.4 1.7-2 1.7-2 1.7-.7 0 1.2-1.5 1.1-1.7-.8-1.7-1.5 0-2 .4-1.5 1.2.6 1 .4 1-.7 0-.7-.6-2.5-1.2-3.9-1.2s-3.2.6-3.9 1.2c-1.1 1-1.3 1-.7 0 1.2-2-9.3-1.6-11.8.5-2 1.7-2 1.7-.7 0 1.2-1.5 1.1-1.7-.8-1.7-1.5 0-2 .4-1.5 1.2.6 1 .4 1-.7 0-.7-.6-2.5-1.2-3.9-1.2s-3.2.6-3.9 1.2c-1.1 1.1-1.3 1-.7 0 .6-1-4.4-1.2-24.6-1-20.4.2-25.2.6-25 1.6.1.8-.2 1.1-.8.7-.6-.3-.8-1.1-.5-1.6 1.1-1.7-6.8-.9-8.9.8-2 1.7-2 1.7-.7 0 1.2-1.5 1.1-1.7-.8-1.7-1.5 0-2 .4-1.5 1.2.6 1 .4 1-.7 0-.7-.6-2.5-1.2-3.9-1.2s-3.2.6-3.9 1.2c-1.1 1-1.3 1-.7 0 1.2-2-9.3-1.6-11.8.5-2 1.7-2 1.7-.7 0 1.2-1.5 1.1-1.7-.8-1.7-1.5 0-2 .4-1.5 1.2.6 1 .4 1-.7 0-.7-.6-2.5-1.2-3.9-1.2s-3.2.6-3.9 1.2c-1.1 1-1.3 1-.7 0 .6-.9-3.9-1.2-20.8-1.2H0l.3 3.9zm32.3.7c0 1.3-.2 2.2-.5 1.9-.3-.3-.6-1.7-.7-3.1 0-1.3.2-2.2.5-1.9.3.3.6 1.7.7 3.1zm96-1.8c-.3.3-.1 1 .4 1.7.7.8.6 1.2-.3 1.2-.7 0-1.3-1.1-1.3-2.3 0-1.2.4-2 .9-1.7.4.3.6.8.3 1.1zm96 1.8c0 1.3-.2 2.2-.5 1.9-.3-.3-.6-1.7-.7-3.1 0-1.3.2-2.2.5-1.9.3.3.6 1.7.7 3.1zM94 29.4c0 .2-.8 1-1.7 1.7-1.6 1.3-1.7 1.2-.4-.4 1.3-1.6 2.1-2.1 2.1-1.3zM9 32.1c0 .5-.4.9-.8.9-.5 0-.9-.7-.9-1.5s.4-1.2.9-.9c.4.3.8.9.8 1.5zm35.6-.9c.5-.4.6-.3.2.2-.4.5-.3 1.5.3 2.3 2.1 2.5.3 1.3-2.2-1.4-1.3-1.5-1.7-2.2-.8-1.5.9.6 2 .8 2.5.4zm24 0c.5-.4.5-.3.1.2-1.2 1.5-3.4 1.5-3.4 0 0-.9.4-1.1 1.2-.4.7.5 1.6.6 2.1.2zm28.3.1c.8 1 .7 1.4-.2 1.4-.8 0-1.4-.6-1.4-1.4 0-.7.1-1.3.2-1.3.2 0 .8.6 1.4 1.3zm8.2.4c1.3 1.6 1.2 1.7-.3.4-1.7-1.3-2.2-2.1-1.4-2.1.2 0 1 .8 1.7 1.7zm57.7.8c-.3.3-.9-.2-1.2-1.2-.6-1.4-.5-1.5.5-.6.7.7 1 1.5.7 1.8zm73.8-1.3c.5-.4.6-.3.2.2-.4.5-.3 1.5.3 2.3 2.1 2.5.3 1.3-2.2-1.4-1.3-1.5-1.7-2.2-.8-1.5.9.6 2 .8 2.5.4zM40.5 32c.3.5.1 1-.4 1-.6 0-1.1-.5-1.1-1 0-.6.2-1 .4-1 .3 0 .8.4 1.1 1zm13.6 1.3c-1 .9-1.1.8-.5-.6.3-1 .9-1.5 1.2-1.2.3.3 0 1.1-.7 1.8zm28.4-.5c-.3.3-1.1 0-1.8-.7-.9-1-.8-1.1.6-.5 1 .3 1.5.9 1.2 1.2zm71.8.2c1 1.2.9 1.2-.4.2-.9-.6-1.8-.9-2.1-.6-.3.3-.9.1-1.2-.4-.9-1.5 2.2-.8 3.7.8zm22.7-1.4c0 .8-1.9 1.3-2.4.6-.3-.5.1-.9.9-.9s1.5.2 1.5.3zm11.1 1.7c-1 .9-1.1.8-.5-.6.3-1 .9-1.5 1.2-1.2.3.3 0 1.1-.7 1.8zm44.4-1.3c.3.5.1 1-.4 1-.6 0-1.1-.5-1.1-1 0-.6.2-1 .4-1 .3 0 .8.4 1.1 1zm13.6 1.3c-1 .9-1.1.8-.5-.6.3-1 .9-1.5 1.2-1.2.3.3 0 1.1-.7 1.8zm11.9-1.8c0 .2-.6.8-1.3 1.4-1 .8-1.4.7-1.4-.2 0-.8.6-1.4 1.4-1.4.7 0 1.3.1 1.3.2zm-221 .9c0 .2-.8 1-1.7 1.7-1.6 1.3-1.7 1.2-.4-.4 1.3-1.6 2.1-2.1 2.1-1.3zm192 0c0 .2-.8 1-1.7 1.7-1.6 1.3-1.7 1.2-.4-.4 1.3-1.6 2.1-2.1 2.1-1.3zM73.4 33.8c.2.4-.4.8-1.4.8-1 0-1.6-.4-1.4-.8.3-.4.9-.8 1.4-.8.5 0 1.1.4 1.4.8zm28.6-.4c0 .2-.8 1-1.7 1.7-1.6 1.3-1.7 1.2-.4-.4 1.3-1.6 2.1-2.1 2.1-1.3zm6.6 2.1c.1.8-.2 1.5-.6 1.5-.5 0-.8-.9-.7-2 .1-2.1 1-1.8 1.3.5zm4.4-1.9c0 .8-1.9 1.3-2.4.6-.3-.5.1-.9.9-.9s1.5.2 1.5.3zm83.6 1.9c.1.8-.2 1.5-.6 1.5-.5 0-.8-.9-.7-2 .1-2.1 1-1.8 1.3.5zm4.4-1.1c-.7.7-1.3.7-2 0-.6-.6-.3-1 1-1s1.6.4 1 1zm8-.8c0 .8-1.9 1.3-2.4.6-.3-.5.1-.9.9-.9s1.5.2 1.5.3zm-78 .8c0 .2-.8 1-1.7 1.7-1.6 1.3-1.7 1.2-.4-.4 1.3-1.6 2.1-2.1 2.1-1.3zm3.4 2.6c-.6.6-1 .3-1-1s.4-1.6 1-1c.7.7.7 1.3 0 2zm28.2-1c0 1.2-.4 1.6-.9 1.1s-.6-1.4-.3-2c1-1.5 1.2-1.4 1.2.9zm4.5-.3c1.3 1.6 1.2 1.7-.3.4-1-.7-1.8-1.5-1.8-1.7 0-.8.8-.3 2.1 1.3zM8 35.4c0 .2-.8 1-1.7 1.7-1.6 1.3-1.7 1.2-.4-.4C7.2 35.1 8 34.6 8 35.4zm8.4.4c.3.5-.1.9-.9.9s-1.2-.4-.9-.9c.3-.4.7-.8.9-.8.2 0 .6.4.9.8zm40.6-.2c0 .8-1.9 1.3-2.4.6-.3-.5.1-.9.9-.9s1.5.2 1.5.3zm24.5.4c.3.6-.1.7-.9.4-1.8-.7-2.1-1.4-.7-1.4.6 0 1.3.4 1.6 1zm4.9-.1c-.9.9-3.4.9-3.4.1 0-.5.9-.8 2-.7 1 .1 1.7.3 1.4.6zm94.6.1c0 .5-.5 1-1.1 1-.5 0-.7-.5-.4-1 .3-.6.8-1 1.1-1 .2 0 .4.4.4 1zm3.5-.2c-.3.3 0 1.1.6 1.9 1.7 2 .5 1.6-1.4-.5-1.5-1.6-1.5-1.9-.2-1.9.8 0 1.3.3 1 .5zm4.2 1.2c-.1 2.1-1 1.8-1.3-.5-.1-.8.2-1.5.6-1.5.5 0 .8.9.7 2zm16.3-1c0 .5-.5 1-1.1 1-.5 0-.7-.5-.4-1 .3-.6.8-1 1.1-1 .2 0 .4.4.4 1zm44-.4c0 .8-1.9 1.3-2.4.6-.3-.5.1-.9.9-.9s1.5.2 1.5.3zM77.1 37.7c1.3 1.6 1.2 1.7-.3.4-1-.7-1.8-1.5-1.8-1.7 0-.8.8-.3 2.1 1.3zm27.7.8c-.3.3-.9-.2-1.2-1.2-.6-1.4-.5-1.5.5-.6.7.7 1 1.5.7 1.8zm96 0c-.3.3-.9-.2-1.2-1.2-.6-1.4-.5-1.5.5-.6.7.7 1 1.5.7 1.8zm7.5-1c-.3.9-.8 1.4-1 1.1-.3-.3-.2-.9.2-1.5.9-1.6 1.5-1.3.8.4zM37 38.4c-.7.7-1.3.7-2 0-.6-.6-.3-1 1-1s1.6.4 1 1zm9-1.1c0 .2-1 1.2-2.2 2.3l-2.3 1.9 1.9-2.3c1.8-2.1 2.6-2.7 2.6-1.9zm50.1 1.4c1.3 1.6 1.2 1.7-.3.4-1-.7-1.8-1.5-1.8-1.7 0-.8.8-.3 2.1 1.3zm41-.4c-.6.8-.8 1.6-.5 1.9.3.3.1.9-.4 1.2-.6.3-.9 0-.8-.6.2-1.6 1.5-3.8 2.3-3.8.3 0 0 .6-.6 1.3zm15.4.5c-.3.3-1.1 0-1.8-.7-.9-1-.8-1.1.6-.5 1 .3 1.5.9 1.2 1.2zm16.6-.5c-.6.8-.8 1.6-.5 1.9.3.3.1.9-.4 1.2-.6.3-.9 0-.8-.6.2-1.6 1.5-3.8 2.3-3.8.3 0 0 .6-.6 1.3zm59.9.1c-.7.7-1.3.7-2 0-.6-.6-.3-1 1-1s1.6.4 1 1zm9-1.1c0 .2-1 1.2-2.2 2.3l-2.3 1.9 1.9-2.3c1.8-2.1 2.6-2.7 2.6-1.9zM15.1 39.7c1.3 1.6 1.2 1.7-.3.4-1.7-1.3-2.2-2.1-1.4-2.1.2 0 1 .8 1.7 1.7zm10.6.1c-1 1-1.6 2.1-1.5 2.3.2.2.1.3-.1.1-.3-.1-.6-.9-.7-1.7-.1-.8.2-1.3.6-1 .5.3 1.1.1 1.5-.5.3-.5.9-1 1.2-1 .3 0-.1.8-1 1.8zM87 38.3c0 .2-.8 1.1-1.8 2-1.5 1.4-1.9 1.5-1.9.2 0-.8.4-1.2.8-.9.4.2 1 0 1.4-.6.6-1 1.5-1.4 1.5-.7zm22 0c0 .2-1 1.2-2.2 2.3l-2.3 1.9 1.9-2.3c1.8-2.1 2.6-2.7 2.6-1.9zm5.7 1.2c0 .8-.4 1.5-.9 1.5-1 0-1.1-1.4-.1-2.3.9-1 1-.9 1 .8zm7 .3c-1 1-1.6 2.1-1.5 2.3.2.2.1.3-.1.1-.3-.1-.6-.9-.7-1.7-.1-.8.2-1.3.6-1 .5.3 1.1.1 1.5-.5.3-.5.9-1 1.2-1 .3 0-.1.8-1 1.8zm74.6-.3c-.3.9-.8 1.4-1 1.1-.3-.3-.2-.9.2-1.5.9-1.6 1.5-1.3.8.4zm21.4.3c-1 1-1.6 2.1-1.5 2.3.2.2.1.3-.1.1-.3-.1-.6-.9-.7-1.7-.1-.8.2-1.3.6-1 .5.3 1.1.1 1.5-.5.3-.5.9-1 1.2-1 .3 0-.1.8-1 1.8zm-209 .7c0 .8-.4 1.2-.9.9-.5-.3-.6-1-.3-1.5.9-1.3 1.2-1.1 1.2.6zm23.8-.6c.3.5.2 1.2-.3 1.5-.5.3-.9-.1-.9-.9 0-1.7.3-1.9 1.2-.6zm8.5-.5c0 .3-.4.8-1 1.1-.5.3-1 .1-1-.4 0-.6.5-1.1 1-1.1.6 0 1 .2 1 .4zm7.7 1.1c0 .8-.4 1.2-.9.9-.5-.3-.6-1-.3-1.5.9-1.3 1.2-1.1 1.2.6zm10.8-.5c-.3.5-1.2 1-1.8 1-.7 0-.6-.4.3-1 1.9-1.2 2.3-1.2 1.5 0zm5.2.9c0 1.1-.5 1.8-.9 1.5-.4-.3-.5-1.1-.1-1.9.7-2.1 1.2-1.9 1 .4zm10.7-1c-.3.4-.9.6-1.2.6-.4 0-1.2.3-1.8.7-.6.4-1.1.1-1.1-.5 0-.7 1.1-1.3 2.3-1.3 1.3 0 2.1.2 1.8.5zm17.2 1.7c.1.9 0 1.3-.4 1-.3-.4-.7-1.4-.8-2.2-.1-.9 0-1.3.4-1 .3.4.7 1.4.8 2.2zM129 40c0 .5-.2 1-.4 1-.3 0-.8-.5-1.1-1-.3-.6-.1-1 .4-1 .6 0 1.1.4 1.1 1zm32-.1c0 .4-1.1.7-2.4.7-1.4 0-2.3-.3-2.1-.6.5-.9 4.5-1 4.5-.1zm22-.5c0 .2-.7.7-1.6 1-.8.3-1.2.2-.9-.4.6-1 2.5-1.4 2.5-.6zm41.5.5c.3.5.2 1.2-.3 1.5-.5.3-.9-.1-.9-.9 0-1.7.3-1.9 1.2-.6zm8.5-.5c0 .3-.4.8-1 1.1-.5.3-1 .1-1-.4 0-.6.5-1.1 1-1.1.6 0 1 .2 1 .4zm18.5.6c-.3.5-1.2 1-1.8 1-.7 0-.6-.4.3-1 1.9-1.2 2.3-1.2 1.5 0zm6.5-.6c0 .2-.8 1-1.7 1.7-1.6 1.3-1.7 1.2-.4-.4 1.3-1.6 2.1-2.1 2.1-1.3zM29.1 41.7c1.3 1.6 1.2 1.7-.3.4-1-.7-1.8-1.5-1.8-1.7 0-.8.8-.3 2.1 1.3zm40 0c1.3 1.6 1.2 1.7-.3.4-1-.7-1.8-1.5-1.8-1.7 0-.8.8-.3 2.1 1.3zm152 0c1.3 1.6 1.2 1.7-.3.4-1-.7-1.8-1.5-1.8-1.7 0-.8.8-.3 2.1 1.3zm-169 1c1.3 1.6 1.2 1.7-.3.4-1-.7-1.8-1.5-1.8-1.7 0-.8.8-.3 2.1 1.3zM82 41.5c0 .1-1 1-2.2 2.1-1.4 1.2-1.8 1.3-1 .3.6-.9 1-1.8.7-2.1-.3-.2.2-.5 1-.5s1.5.1 1.5.2zm6.4 1.1c.3.8.2 1.2-.4.9-.6-.3-1-1-1-1.6 0-1.4.7-1.1 1.4.7zm9-.8c.3.5-.1.9-.9.9s-1.5-.4-1.5-.9c0-.4.4-.8.9-.8.6 0 1.2.4 1.5.8zm28 0c.2.4-.4.8-1.4.8-1 0-1.6-.4-1.4-.8.3-.4.9-.8 1.4-.8.5 0 1.1.4 1.4.8zm30.7.9c1.3 1.6 1.2 1.7-.3.4-1-.7-1.8-1.5-1.8-1.7 0-.8.8-.3 2.1 1.3zm94.2.6c.4-.3.7-.4.7 0 0 1.7-2 1.4-3.6-.6-1.9-2.2-1.9-2.2.2-.4 1.1.9 2.4 1.4 2.7 1zM43 42.4c0 .2-.8 1-1.7 1.7-1.6 1.3-1.7 1.2-.4-.4 1.3-1.6 2.1-2.1 2.1-1.3zm109.7 1.1c0 .8-.4 1.5-.9 1.5-1 0-1.1-1.4-.1-2.3.9-1 1-.9 1 .8zm26.4.2c1.3 1.6 1.2 1.7-.3.4-1-.7-1.8-1.5-1.8-1.7 0-.8.8-.3 2.1 1.3zm55.9-1.3c0 .2-.8 1-1.7 1.7-1.6 1.3-1.7 1.2-.4-.4 1.3-1.6 2.1-2.1 2.1-1.3zM17 44c0 .5-.2 1-.4 1-.3 0-.8-.5-1.1-1-.3-.6-.1-1 .4-1 .6 0 1.1.4 1.1 1zm6-.4c0 .8-1.9 1.3-2.4.6-.3-.5.1-.9.9-.9s1.5.2 1.5.3zm40 0c0 .8-1.9 1.3-2.4.6-.3-.5.1-.9.9-.9s1.5.2 1.5.3zm11.7.9c0 .8-.4 1.2-.9.9-.4-.3-.8-.9-.8-1.5 0-.5.4-.9.8-.9.5 0 .9.7.9 1.5zM85 44c0 .5-.2 1-.4 1-.3 0-.8-.5-1.1-1-.3-.6-.1-1 .4-1 .6 0 1.1.4 1.1 1zm24 0c0 .5-.5 1-1.1 1-.5 0-.7-.5-.4-1 .3-.6.8-1 1.1-1 .2 0 .4.4.4 1zm6-.4c0 .8-1.9 1.3-2.4.6-.3-.5.1-.9.9-.9s1.5.2 1.5.3zm3.7 1.1c0 .9-.4 1-1.4.2-.7-.6-1.3-1.2-1.3-1.4 0-.1.6-.2 1.3-.2.8 0 1.4.6 1.4 1.4zm12-.2c0 .8-.4 1.2-.9.9-.4-.3-.8-.9-.8-1.5 0-.5.4-.9.8-.9.5 0 .9.7.9 1.5zm8.7-.4c.3.3-.8.5-2.3.4-1.6 0-2.7-.3-2.5-.7.5-.8 4-.6 4.8.3zm8.6-.5c0 .8-1.9 1.3-2.4.6-.3-.5.1-.9.9-.9s1.5.2 1.5.3zm21-.2c0 .2-.7.7-1.6 1-.8.3-1.2.2-.9-.4.6-1 2.5-1.4 2.5-.6zm5.1 1.3c1.3 1.6 1.2 1.7-.3.4-1-.7-1.8-1.5-1.8-1.7 0-.8.8-.3 2.1 1.3zm10.4-.8c-.9.8-3.6 1-3 .2.2-.4 1.1-.8 2-.8.8 0 1.3.3 1 .6zm18.9-.1c.3.5-.1.9-.9.9s-1.2-.4-.9-.9c.3-.4.7-.8.9-.8.2 0 .6.4.9.8zm11 .1c-.7.8-5.4.9-5.9.2-.2-.4 1.2-.7 3-.7 1.9 0 3.2.3 2.9.5zm30.1.1c.3.5.1 1-.4 1-.6 0-1.1-.5-1.1-1 0-.6.2-1 .4-1 .3 0 .8.4 1.1 1zm10.5-.4c0 .8-1.9 1.3-2.4.6-.3-.5.1-.9.9-.9s1.5.2 1.5.3zm-162 .8c0 .2-.8 1-1.7 1.7-1.6 1.3-1.7 1.2-.4-.4 1.3-1.6 2.1-2.1 2.1-1.3zm-64.2 1.4c.9-.7 1.3-.8.9-.2-.9 1.5 23.5 1.5 24.5 0 .5-.7.8-.6.8.3 0 1.1.3 1.1 1.7 0 1.4-1.2 1.6-1.2.8 0-.6 1.1-.4 1.3.8.8 1.2-.5 1.5.1 1.5 2.4l-.1 2.9H24v173h-2.4c-1.3 0-2.6-.4-2.8-1-.1-.5-.1-4.8.2-9.5.4-6.6.2-8.5-.8-8.5s-.9-.5.4-1.7c.9-.9 1.2-1.9.7-2-.6-.2-.8-1.5-.5-3 .3-1.5.1-2.4-.5-2-.5.3-1 0-1-.8s.4-1.2.8-.9c.4.2 1 0 1.4-.6.3-.5-.2-1-1.2-1-1.1 0-1.4-.3-.6-.8.8-.5 1.1-5.8 1.2-17 0-9 .3-16.8.6-17.3.4-.5-.1-.9-1-.9-1.5 0-1.5-.2.1-1.7.9-.9 1.2-1.9.7-2-.6-.2-.8-1.5-.5-3 .3-1.5.1-2.4-.5-2-.5.3-1 0-1-.8s.4-1.2.8-.9c.4.2 1 0 1.4-.6.3-.5-.2-1-1.2-1-1.4 0-1.5-.2-.4-.9.8-.6 1.2-1.9.9-3.5-.3-1.5-.1-2.9.4-3.2.4-.3.5-1 .2-1.6-.8-1.3-.6-24.6.2-25.9.3-.5-.2-.9-1.1-.9-1.5 0-1.5-.2.1-1.7.9-.9 1.2-1.9.7-2-.6-.2-.8-1.5-.5-3 .3-1.5.1-2.4-.5-2-.5.3-1 0-1-.8s.4-1.2.8-.9c.4.2 1 0 1.4-.6.3-.5-.2-1-1.2-1-1.1 0-1.4-.3-.6-.8.8-.5 1.1-5.8 1.2-17 0-9 .3-16.8.6-17.3.4-.5-.1-.9-1-.9-1.5 0-1.5-.2.1-1.7.9-.9 1.2-1.9.7-2-.6-.2-.8-1.5-.5-3 .3-1.5.1-2.4-.5-2-.5.3-1 0-1-.8s.4-1.2.8-.9c.4.2 1 0 1.4-.6.3-.5-.1-1-.9-1-1.4 0-1.4-.2 0-1.9 1.2-1.3 2.5-1.7 4.5-1.4 1.9.3 2.9 0 3-.9 0-1 .2-1.1.6 0 .4 1 .8 1 2.1 0zm40.6.4c-.3.4-.9.8-1.5.8-.5 0-.9-.4-.9-.8 0-.5.7-.9 1.5-.9s1.2.4.9.9zm91-.1c.4-.6 1.3-1.1 1.9-1.1.7 0 .6.4-.3 1.1-1.2.8-1 1 1.1.6 1.7-.2 2.6.1 2.6 1 0 .7-.4 1.3-.9 1.3s-.6.5-.3 1c.4.6 1.1.7 1.7.4.7-.4.8-.2.4.4-.5.9-6.3 1.2-19.2 1.2H129v173h-2.4c-1.4 0-2.8-.5-3.2-1.2-.4-.6-.3-.8.4-.4s.8-.2.2-2.3c-.5-1.7-.4-3.3.2-3.9 1.3-1.3-.9-5.5-2.4-4.6-.7.4-.8.3-.4-.5.4-.6 1.1-.9 1.6-.6.4.3 1-.9 1.2-2.6.3-1.6.1-3.2-.4-3.5-.5-.3-.5-1-.2-1.6.9-1.4.9-15.2 0-16.7-.4-.7-.2-1.8.4-2.6.8-1 .9-1.5.2-1.5-.6 0-.8-1-.5-2.3.5-2.4.5-4.1 0-7.2-.2-1.1.1-2.3.7-2.7.8-.6.7-.8-.1-.8-.9 0-1-.7-.3-2.4.6-1.7.4-3-.7-4.6-.9-1.3-1.2-2-.6-1.7.6.4 1.3 0 1.7-.8.3-.8.1-1.5-.4-1.5s-.7-1-.4-2.2c.8-3.6.8-16.4 0-17.7-.4-.7-.2-1.8.4-2.6.8-1 .9-1.5.2-1.5-.6 0-.9-1-.6-2.3.8-3.4.8-16.3 0-17.6-.4-.7-.2-1.8.4-2.6.8-1 .9-1.5.2-1.5-.6 0-.9-1-.6-2.3.8-3.5.8-16.3 0-17.6-.4-.7-.2-1.8.4-2.6.8-1 .9-1.5.2-1.5-.6 0-.9-1-.6-2.3.8-3.4.8-16.3 0-17.6-.4-.7-.2-1.8.4-2.6.8-1 .9-1.5.2-1.5-.6 0-.9-1-.6-2.3.3-1.2.6-4.9.7-8.1l.2-6 16.8.1c11.4 0 16.7-.4 16.7-1.1 0-.6.4-.5.9.3.6.9 1.1 1 1.5.2zm45.2-.2c-.8 1.3 11.7.9 12.6-.3.5-.7.8-.6.8.3 0 1.1.3 1.1 1.7 0 .9-.8 1.4-.9 1-.3-.9 1.5 17.5 1.5 18.5 0 .4-.6.8.4.8 2.2 0 2.3.4 3.1 1.2 2.6.7-.4.8-.3.4.4-.5.9-6.3 1.2-19.2 1.2H205v66h-17.4c-16.4 0-17.4-.1-17.9-2-.6-2.5 1.1-3.7 4.8-3.4 1.6.2 3.6-.2 4.4-.9 1.2-.9 1.3-.9.7 0-.4.8-.1 1.3.9 1.3s1.4-.5.9-1.3c-.6-1-.4-1 .7 0 1.5 1.4 4.3 1.8 3.5.5-.3-.5.1-.9.9-.9s1.2.4 1 .8c-.3.4 1.1.7 3 .7s3.2-.4 2.9-.9c-.3-.5 0-.9.5-.9.6 0 1.1.5 1.1 1 0 .6 1.1.9 2.5.7 2.6-.3 4.7-1.7 2.6-1.7-.7 0-.9-.5-.5-1.1 1-1.7 1.1-5.2.2-7.2-.5-.9-.5-1.7-.1-1.7s.8-2.4.8-5.4c0-3-.3-5.2-.7-4.9-.5.2-.8 0-.8-.6 0-.5.3-1.2.8-1.5.9-.5.8-8.9-.2-10.5-.4-.6-.3-1.1.1-1.1.5 0 .8-2.4.8-5.4 0-3-.3-5.2-.6-5-.3.2-.6-1-.5-2.6.1-1.7.4-3 .7-3 .4 0 .6-1.1.5-2.5-.1-1.7-.5-2.3-1.5-2-1.2.5-1.2.3-.1-1 1.4-1.7 2.1-6.5.9-6.5-.3 0-.6-.6-.6-1.3 0-.9 1-1.3 2.4-1.1 1.2.1 2.5-.2 2.9-.7.3-.5.7-.9 1-.9.3 0 .3.4 0 .9zm-201.1 1c.3.5.2 1.2-.3 1.5-.5.3-.9-.1-.9-.9 0-1.7.3-1.9 1.2-.6zm58.2.6c0 .8-.4 1.2-.9.9-.5-.3-.6-1-.3-1.5.9-1.3 1.2-1.1 1.2.6zm16.2-.2c.8 1 .7 1.4-.2 1.4-.8 0-1.4-.6-1.4-1.4 0-.7.1-1.3.2-1.3.2 0 .8.6 1.4 1.3zm107.4.2c-.3.9-.8 1.4-1 1.1-.3-.3-.2-.9.2-1.5.9-1.6 1.5-1.3.8.4zm68.4 0c0 .8-.4 1.2-.9.9-.5-.3-.6-1-.3-1.5.9-1.3 1.2-1.1 1.2.6zM10.5 48c.3.5.1 1-.4 1-.6 0-1.1-.5-1.1-1 0-.6.2-1 .4-1 .3 0 .8.4 1.1 1zm64.2.7c0 .9-.4 1-1.4.2-.7-.6-1.3-1.2-1.3-1.4 0-.1.6-.2 1.3-.2.8 0 1.4.6 1.4 1.4zm37-.5c1.1 1.9 1.3 3.9.2 3.2-.5-.3-.7-.9-.4-1.4.3-.5-.3-1.3-1.2-1.9-1-.6-1.3-1.1-.6-1.1.6 0 1.5.6 2 1.2zm10.4.5c1.2 1.6 1.2 1.7-.2.6-.9-.7-2-.9-2.4-.5-.5.4-.5.1-.1-.6.9-1.6 1.1-1.5 2.7.5zM175 48c0 .5-.5 1-1.1 1-.5 0-.7-.5-.4-1 .3-.6.8-1 1.1-1 .2 0 .4.4.4 1zm8-.6c0 .3-.4.8-1 1.1-.5.3-1 .1-1-.4 0-.6.5-1.1 1-1.1.6 0 1 .2 1 .4zm11.1 1.3c1.3 1.7 1.3 1.7-.6.3-1.1-.8-2.2-1.6-2.4-1.7-.2-.2 0-.3.6-.3s1.7.8 2.4 1.7zm-5 1c1.3 1.6 1.2 1.7-.3.4-1-.7-1.8-1.5-1.8-1.7 0-.8.8-.3 2.1 1.3zM86 49.4c0 .2-.8 1-1.7 1.7-1.6 1.3-1.7 1.2-.4-.4 1.3-1.6 2.1-2.1 2.1-1.3zm6.6 2.1c.1.8-.2 1.5-.6 1.5-.5 0-.8-.9-.7-2 .1-2.1 1-1.8 1.3.5zm156.8-1.7c.3.5-.1.9-.9.9s-1.5-.4-1.5-.9c0-.4.4-.8.9-.8.6 0 1.2.4 1.5.8zM98 51.5c-.7.8-1.7 1.5-2.3 1.5-.6 0-.2-.7.9-1.5 2.5-1.9 3-1.9 1.4 0zm4.4 1.5c-.6.6-1 .3-1-1s.4-1.6 1-1c.7.7.7 1.3 0 2zm80.6-2.6c0 .2-.8 1-1.7 1.7-1.6 1.3-1.7 1.2-.4-.4 1.3-1.6 2.1-2.1 2.1-1.3zM14.4 52.1c-.4.7-6.2.4-7-.3-.2-.3 1.3-.5 3.5-.4 2.2 0 3.7.4 3.5.7zm101.6-.7c0 .2-.8 1-1.7 1.7-1.6 1.3-1.7 1.2-.4-.4 1.3-1.6 2.1-2.1 2.1-1.3zm6 .2c0 .8-1.9 1.3-2.4.6-.3-.5.1-.9.9-.9s1.5.2 1.5.3zm71.1.7c-.6.8-.8 1.6-.5 1.9.3.3.1.9-.4 1.2-.6.3-.9 0-.8-.6.2-1.6 1.5-3.8 2.3-3.8.3 0 0 .6-.6 1.3zm63.5.2c-.1.8-.5 1.7-.8 2.1-.5.4-.4-1.6.1-3.4.3-.9.9.1.7 1.3zm-167.8 2c-.3.3-.9-.2-1.2-1.2-.6-1.4-.5-1.5.5-.6.7.7 1 1.5.7 1.8zm95.8-.7c-.3.3-.1 1 .4 1.7.7.8.6 1.2-.3 1.2-.7 0-1.3-1.1-1.3-2.3 0-1.2.4-2 .9-1.7.4.3.6.8.3 1.1zm-112.1 1c-.3.3-1.1 0-1.8-.7-.9-1-.8-1.1.6-.5 1 .3 1.5.9 1.2 1.2zm32.6-.5c-.6.8-.8 1.6-.5 2 .3.3-.1.4-1 .3-.8-.1-1.9-.6-2.3-1.1-.4-.4-.3-.5.3-.2.7.4 1.7 0 2.4-.8s1.5-1.5 1.7-1.5c.3 0 0 .6-.6 1.3zm68.9-.9c0 .2-.8 1-1.7 1.7-1.6 1.3-1.7 1.2-.4-.4 1.3-1.6 2.1-2.1 2.1-1.3zm15.4.8c-.3.4-.9.8-1.5.8-.5 0-.9-.4-.9-.8 0-.5.7-.9 1.5-.9s1.2.4.9.9zM14.6 56c0 1.2-.4 1.6-.9 1.1s-.6-1.4-.3-2c1-1.5 1.2-1.4 1.2.9zM93 54.3c0 .2-1 1.2-2.2 2.3l-2.3 1.9 1.9-2.3c1.8-2.1 2.6-2.7 2.6-1.9zm85.6 1.7c0 1.2-.4 1.6-.9 1.1s-.6-1.4-.3-2c1-1.5 1.2-1.4 1.2.9zM11.5 56c-.3.5-1.2 1-1.8 1-.7 0-.6-.4.3-1 1.9-1.2 2.3-1.2 1.5 0zm69-.1c-.3.2.1 1.1.7 2 1 1.2.7 1.2-.8-.2-1.1-.9-2.3-1.4-2.6-1.1-.3.3-.8.1-1.1-.3-.3-.5.5-.9 1.8-.9 1.4 0 2.2.2 2 .5zm38 .9c-.3.3-1.1 0-1.8-.7-.9-1-.8-1.1.6-.5 1 .3 1.5.9 1.2 1.2zm130.2-1.1c-.4.3-.1 1.3.6 2.2 1.1 1.4 1 1.4-.5.2-1.6-1.2-1.6-3.1-.1-3.1.4 0 .3.3 0 .7zM4.5 57.9c.3.5.2 1.2-.3 1.5-.5.3-.9-.1-.9-.9 0-1.7.3-1.9 1.2-.6zm96.2.8c0 .9-.4 1-1.4.2-.7-.6-1.3-1.2-1.3-1.4 0-.1.6-.2 1.3-.2.8 0 1.4.6 1.4 1.4zm21.3-1.4c0 .2-1 1.2-2.2 2.3l-2.3 1.9 1.9-2.3c1.8-2.1 2.6-2.7 2.6-1.9zm74.7 1.7c.1 1.1-.2 2-.7 2-.6 0-.7-1.7-.1-3.8.3-.8.7.1.8 1.8zM74.6 60c0 1.2-.4 1.6-.9 1.1s-.6-1.4-.3-2c1-1.5 1.2-1.4 1.2.9zM187 58.4c0 .2-.8 1-1.7 1.7-1.6 1.3-1.7 1.2-.4-.4 1.3-1.6 2.1-2.1 2.1-1.3zm4 1.7c0 .5-.4.9-.8.9-.5 0-.9-.7-.9-1.5s.4-1.2.9-.9c.4.3.8.9.8 1.5zM12.5 60c.3.5.1 1-.4 1-.6 0-1.1-.5-1.1-1 0-.6.2-1 .4-1 .3 0 .8.4 1.1 1zm67.5-.6c0 .2-.8 1-1.7 1.7-1.6 1.3-1.7 1.2-.4-.4 1.3-1.6 2.1-2.1 2.1-1.3zm13 .6c0 .5-.5 1-1.1 1-.5 0-.7-.5-.4-1 .3-.6.8-1 1.1-1 .2 0 .4.4.4 1zm24 0c0 .4-.7.7-1.5.6-2.3-.3-2.6-1.2-.5-1.3 1.1-.1 2 .2 2 .7zM4.3 63.5c-.7 2.1-1.2 1.9-1-.4 0-1.1.5-1.8.9-1.5.4.3.5 1.1.1 1.9zm63.1-1.7c.3.5-.1.9-.9.9s-1.2-.4-.9-.9c.3-.4.7-.8.9-.8.2 0 .6.4.9.8zm33.1.1c-.3.6.3 1.4 1.2 2 1 .6 1.3 1.1.7 1.1-1.5 0-3.6-2.5-2.7-3.3 1-1 1.5-.8.8.2zm4.9.3c-.3.4-.9.8-1.5.8-.5 0-.9-.4-.9-.8 0-.5.7-.9 1.5-.9s1.2.4.9.9zm-93.3 2.5c1.2 1.6 1.2 1.7-.2.6-.9-.7-1.9-1-2.2-.6-.4.3-.7.1-.7-.5 0-1.7 1.6-1.5 3.1.5zm5.9-1.4c0 .2-1 1.2-2.2 2.3l-2.3 1.9 1.9-2.3c1.8-2.1 2.6-2.7 2.6-1.9zm58.1 1.4c1.2 1.6 1.2 1.7-.2.6-.9-.7-2-.9-2.4-.5-.5.4-.5.1-.1-.6.9-1.6 1.1-1.5 2.7.5zm3.5 1.1c-1.7 1.6-1.8 1.6-.5-.5.7-1.2 1.5-2 1.8-1.7.3.2-.3 1.2-1.3 2.2zm8.4-2.4c0 .2-.8 1-1.7 1.7-1.6 1.3-1.7 1.2-.4-.4 1.3-1.6 2.1-2.1 2.1-1.3zm24.5 1.6c1 1.1 1.6 2 1.3 2-.3 0-1.3-.9-2.3-2-1-1.1-1.6-2-1.3-2 .3 0 1.3.9 2.3 2zm3.6.3c-1 .9-1.1.8-.5-.6.3-1 .9-1.5 1.2-1.2.3.3 0 1.1-.7 1.8zm68.9-1.9c0 .2-.7.7-1.6 1-.8.3-1.2.2-.9-.4.6-1 2.5-1.4 2.5-.6zm65.5 1.4c-.3.3-1.1 0-1.8-.7-.9-1-.8-1.1.6-.5 1 .3 1.5.9 1.2 1.2zm6.5-.3c-.5.7-.9 1.4-.7 1.6.1.2 0 .3-.2.1-1.1-.7-.7-2.9.5-2.9.9 0 1.1.4.4 1.2zM72.5 65.9c.3.5.2 1.2-.3 1.5-.5.3-.9-.1-.9-.9 0-1.7.3-1.9 1.2-.6zm100.1 1.7c.1.9 0 1.3-.4 1-.3-.4-.7-1.4-.8-2.2-.1-.9 0-1.3.4-1 .3.4.7 1.4.8 2.2zm4.4-2c0 .8-1.9 1.3-2.4.6-.3-.5.1-.9.9-.9s1.5.2 1.5.3zm84.4.2c.3.5-.1.9-.9.9s-1.5-.4-1.5-.9c0-.4.4-.8.9-.8.6 0 1.2.4 1.5.8zm-12.3 1.9c1.3 1.6 1.2 1.7-.3.4-1-.7-1.8-1.5-1.8-1.7 0-.8.8-.3 2.1 1.3zm-158.6.2c-.9.8-3.6 1-3 .2.2-.4 1.1-.8 2-.8.8 0 1.3.3 1 .6zm3.6.8c1.3 1.6 1.2 1.7-.3.4-1-.7-1.8-1.5-1.8-1.7 0-.8.8-.3 2.1 1.3zm6.9-.7c0 .4-.7.7-1.5.6-2.3-.3-2.6-1.2-.5-1.3 1.1-.1 2 .2 2 .7zm4-.6c0 .2-.7.7-1.6 1-.8.3-1.2.2-.9-.4.6-1 2.5-1.4 2.5-.6zm92 .6c0 .5-.2 1-.4 1-.3 0-.8-.5-1.1-1-.3-.6-.1-1 .4-1 .6 0 1.1.4 1.1 1zm57.4-.1c-.9.9-3.4.9-3.4.1 0-.5.9-.8 2-.7 1 .1 1.7.3 1.4.6zm-145.4.5c0 .2-.8 1-1.7 1.7-1.6 1.3-1.7 1.2-.4-.4 1.3-1.6 2.1-2.1 2.1-1.3zm-31.6 1.8c-.3.4-.9.8-1.5.8-.5 0-.9-.4-.9-.8 0-.5.7-.9 1.5-.9s1.2.4.9.9zm184.6-.8c0 .2-.8 1-1.7 1.7-1.6 1.3-1.7 1.2-.4-.4 1.3-1.6 2.1-2.1 2.1-1.3zM8.5 70.9c.3.5.2 1.2-.3 1.5-.5.3-.9-.1-.9-.9 0-1.7.3-1.9 1.2-.6zM98.4 73c-.6.6-1 .3-1-1s.4-1.6 1-1c.7.7.7 1.3 0 2zm80.3-1.5c0 .8-.4 1.5-.9 1.5-1 0-1.1-1.4-.1-2.3.9-1 1-.9 1 .8zm7 .3c-1 1-1.6 2.1-1.5 2.3.2.2.1.3-.1.1-.3-.1-.6-.9-.7-1.7-.1-.8.2-1.3.6-1 .5.3 1.1.1 1.5-.5.3-.5.9-1 1.2-1 .3 0-.1.8-1 1.8zm68.9.2c0 1.2-.4 1.6-.9 1.1s-.6-1.4-.3-2c1-1.5 1.2-1.4 1.2.9zm-181.1.1c.3.3-.6.5-1.9.5-1.4-.1-2.8-.4-3.1-.7-.3-.3.6-.5 1.9-.5 1.4.1 2.8.4 3.1.7zm18-.1c-.3.5-1.2 1-1.8 1-.7 0-.6-.4.3-1 1.9-1.2 2.3-1.2 1.5 0zm11 .8c-.3.3-1.1 0-1.8-.7-.9-1-.8-1.1.6-.5 1 .3 1.5.9 1.2 1.2zm20.1-.6c.3.4-.1.5-1 .4-.8-.1-1.8-.5-2.2-.8-.3-.4.1-.5 1-.4.8.1 1.8.5 2.2.8zm128.9-.2c-.3.5-1.2 1-1.8 1-.7 0-.6-.4.3-1 1.9-1.2 2.3-1.2 1.5 0zm-62.4 1.7c1.3 1.6 1.2 1.7-.3.4-1-.7-1.8-1.5-1.8-1.7 0-.8.8-.3 2.1 1.3zm-120.6.2c.3.5.2 1.2-.3 1.5-.5.3-.9-.1-.9-.9 0-1.7.3-1.9 1.2-.6zm16.1 1.6c.1.8-.2 1.5-.6 1.5-.5 0-.8-.9-.7-2 .1-2.1 1-1.8 1.3.5zm24.1-.8c0 .9-.4 1-1.4.2-.7-.6-1.3-1.2-1.3-1.4 0-.1.6-.2 1.3-.2.8 0 1.4.6 1.4 1.4zm84.8-.7c-.3.5-1.2 1-1.8 1-.7 0-.6-.4.3-1 1.9-1.2 2.3-1.2 1.5 0zm3.2 1c.1 1.1-.2 2-.7 2-.6 0-.7-1.7-.1-3.8.3-.8.7.1.8 1.8zm64.7-1.2c.3.5-.1.9-.9.9s-1.5-.4-1.5-.9c0-.4.4-.8.9-.8.6 0 1.2.4 1.5.8zM11 74.4c0 .2-.8 1-1.7 1.7-1.6 1.3-1.7 1.2-.4-.4 1.3-1.6 2.1-2.1 2.1-1.3zm5.4 2.5c-.2.3-1.2-.3-2.2-1.3-1.6-1.7-1.6-1.8.5-.5 1.2.7 2 1.5 1.7 1.8zM75 74.4c0 .2-.8 1-1.7 1.7-1.6 1.3-1.7 1.2-.4-.4 1.3-1.6 2.1-2.1 2.1-1.3zm4 1.7c0 .5-.4.9-.8.9-.5 0-.9-.7-.9-1.5s.4-1.2.9-.9c.4.3.8.9.8 1.5zm34.6-.2c-1.8 2-1.3 4.7.6 3.5.7-.5.8-.2.3.5-.6 1-1.1.9-2.3-.3-1.4-1.4-1.4-1.7.3-3.6 1-1.1 2-2 2.3-2 .3 0-.3.9-1.2 1.9zm4.8 1.1c-.6.6-1 .3-1-1s.4-1.6 1-1c.7.7.7 1.3 0 2zm54.4-.5c-.3.3-.9-.2-1.2-1.2-.6-1.4-.5-1.5.5-.6.7.7 1 1.5.7 1.8zM93 75.4c0 .3-.4.8-1 1.1-.5.3-1 .1-1-.4 0-.6.5-1.1 1-1.1.6 0 1 .2 1 .4zm8 .6c0 .5-.5 1-1.1 1-.5 0-.7-.5-.4-1 .3-.6.8-1 1.1-1 .2 0 .4.4.4 1zm78-.4c0 .8-1.9 1.3-2.4.6-.3-.5.1-.9.9-.9s1.5.2 1.5.3zm4 0c0 .8-1.9 1.3-2.4.6-.3-.5.1-.9.9-.9s1.5.2 1.5.3zm69.5.4c.3.5.1 1-.4 1-.6 0-1.1-.5-1.1-1 0-.6.2-1 .4-1 .3 0 .8.4 1.1 1zM66.8 78.5c-.3.3-.9-.2-1.2-1.2-.6-1.4-.5-1.5.5-.6.7.7 1 1.5.7 1.8zm13.4.7c-1.4 1.4-4.4 2-3.6.7.3-.5 1-.7 1.5-.4.5.4 1.2-.1 1.5-1 .4-.9.9-1.3 1.2-1 .3.3 0 1.1-.6 1.7zm28.4-.7c-.1.8-.5 1.7-.8 2.1-.5.4-.4-1.6.1-3.4.3-.9.9.1.7 1.3zm81.4-1.1c0 .2-.8 1-1.7 1.7-1.6 1.3-1.7 1.2-.4-.4 1.3-1.6 2.1-2.1 2.1-1.3zm72 0c0 .2-.8 1-1.7 1.7-1.6 1.3-1.7 1.2-.4-.4 1.3-1.6 2.1-2.1 2.1-1.3zM84.7 79.5c0 .8-.4 1.2-.9.9-.5-.3-.6-1-.3-1.5.9-1.3 1.2-1.1 1.2.6zm10-.2c0 .8-.6 1.4-1.4 1.4-.9 0-1-.4-.2-1.4.6-.7 1.2-1.3 1.4-1.3.1 0 .2.6.2 1.3zm102.8.7c1 1.1 1.6 2 1.3 2-.3 0-1.3-.9-2.3-2-1-1.1-1.6-2-1.3-2 .3 0 1.3.9 2.3 2zm-180.9.2c.3.4-.1.5-1 .4-.8-.1-1.8-.5-2.2-.8-.3-.4.1-.5 1-.4.8.1 1.8.5 2.2.8zm159.5.5c1.3 1.7 1.3 1.7-.6.3-1.1-.8-2.2-1.6-2.4-1.7-.2-.2 0-.3.6-.3s1.7.8 2.4 1.7zm10 0c1.2 1.6 1.2 1.7-.2.6-.9-.7-2-.9-2.4-.5-.5.4-.5.1-.1-.6.9-1.6 1.1-1.5 2.7.5zM251 80c0 .5-.4 1-1 1-.5 0-1-.5-1-1 0-.6.5-1 1-1 .6 0 1 .4 1 1zm6.1.3c-.6.8-.7 1.8-.3 2.2.4.5.1.5-.6.1-1-.6-1-1.1-.1-2.2.6-.8 1.4-1.4 1.6-1.4.3 0 0 .6-.6 1.3zm-168 1.4c1.3 1.6 1.2 1.7-.3.4-1-.7-1.8-1.5-1.8-1.7 0-.8.8-.3 2.1 1.3zm15.9-1.3c0 .2-.8 1-1.7 1.7-1.6 1.3-1.7 1.2-.4-.4 1.3-1.6 2.1-2.1 2.1-1.3zm-96 2c-.7.7-1.3.7-2 0-.6-.6-.3-1 1-1s1.6.4 1 1zm3.6 2.7c.1 2.2-.2 3.5-.6 2.9-.7-1.2-.5-7 .3-7 .1 0 .3 1.8.3 4.1zm63.5-2.4c1.3 1.6 1.2 1.7-.3.4-1-.7-1.8-1.5-1.8-1.7 0-.8.8-.3 2.1 1.3zm40.5.8c.1.8-.2 1.5-.6 1.5-.5 0-.8-.9-.7-2 .1-2.1 1-1.8 1.3.5zm4.4-1.1c-.7.7-1.3.7-2 0-.6-.6-.3-1 1-1s1.6.4 1 1zm140.4-.6c.3.5-.1.9-.9.9s-1.5-.4-1.5-.9c0-.4.4-.8.9-.8.6 0 1.2.4 1.5.8zm-12.3 1.9c1.3 1.6 1.2 1.7-.3.4-1-.7-1.8-1.5-1.8-1.7 0-.8.8-.3 2.1 1.3zM4.5 84c.3.5.1 1-.4 1-.6 0-1.1-.5-1.1-1 0-.6.2-1 .4-1 .3 0 .8.4 1.1 1zm64.2 1c-.2 1.1-.6 2.2-.9 2.6-.4.3-.5-.2-.3-1.3.2-1 .4-2.1.4-2.6.1-.4.3-.7.6-.7s.4.9.2 2zM186 83.6c0 .8-1.9 1.3-2.4.6-.3-.5.1-.9.9-.9s1.5.2 1.5.3zm10.5.4c.3.5.1 1-.4 1-.6 0-1.1-.5-1.1-1 0-.6.2-1 .4-1 .3 0 .8.4 1.1 1zm57.9-.1c-.9.9-3.4.9-3.4.1 0-.5.9-.8 2-.7 1 .1 1.7.3 1.4.6zM8.3 85.5c-.3.9-.8 1.4-1 1.1-.3-.3-.2-.9.2-1.5.9-1.6 1.5-1.3.8.4zm64 0c-.3.9-.8 1.4-1 1.1-.3-.3-.2-.9.2-1.5.9-1.6 1.5-1.3.8.4zM85 84.4c0 .2-.8 1-1.7 1.7-1.6 1.3-1.7 1.2-.4-.4 1.3-1.6 2.1-2.1 2.1-1.3zm35.8 2.1c-.3.3-.9-.2-1.2-1.2-.6-1.4-.5-1.5.5-.6.7.7 1 1.5.7 1.8zm-44.2 0c-.1.8-.5 1.7-.8 2.1-.5.4-.4-1.6.1-3.4.3-.9.9.1.7 1.3zm4.4-1.1c0 .3-.4.8-1 1.1-.5.3-1 .1-1-.4 0-.6.5-1.1 1-1.1.6 0 1 .2 1 .4zm32 .6c0 .5-.5 1-1.1 1-.5 0-.7-.5-.4-1 .3-.6.8-1 1.1-1 .2 0 .4.4.4 1zm149-.6c0 .2-.8 1-1.7 1.7-1.6 1.3-1.7 1.2-.4-.4 1.3-1.6 2.1-2.1 2.1-1.3zm-145.7 2.1c-.3.9-.8 1.4-1 1.1-.3-.3-.2-.9.2-1.5.9-1.6 1.5-1.3.8.4zm138.3.5c0 1.2-.4 1.6-.9 1.1s-.6-1.4-.3-2c1-1.5 1.2-1.4 1.2.9zm-165.9.7c0 .9-.4 1-1.2.3-.7-.5-1.4-.7-1.7-.4-.3.3-.8.1-1.1-.3-.3-.5.5-.9 1.7-.9s2.3.6 2.3 1.3zM97 88c0 .5-.4 1-1 1-.5 0-1-.5-1-1 0-.6.5-1 1-1 .6 0 1 .4 1 1zm9-.4c0 .8-1.9 1.3-2.4.6-.3-.5.1-.9.9-.9s1.5.2 1.5.3zm70.1 1.1c1.3 1.6 1.2 1.7-.3.4-1-.7-1.8-1.5-1.8-1.7 0-.8.8-.3 2.1 1.3zm6.4.1c-.3.3-1.1 0-1.8-.7-.9-1-.8-1.1.6-.5 1 .3 1.5.9 1.2 1.2zm69-.8c-.3.5-1.2 1-1.8 1-.7 0-.6-.4.3-1 1.9-1.2 2.3-1.2 1.5 0zM66.8 90.5c-.3.3-.9-.2-1.2-1.2-.6-1.4-.5-1.5.5-.6.7.7 1 1.5.7 1.8zM93 88.4c0 .2-.8 1-1.7 1.7-1.6 1.3-1.7 1.2-.4-.4 1.3-1.6 2.1-2.1 2.1-1.3zm103.7 1.1c0 .8-.4 1.2-.9.9-.5-.3-.6-1-.3-1.5.9-1.3 1.2-1.1 1.2.6zM81 89.4c0 .2-.7.7-1.6 1-.8.3-1.2.2-.9-.4.6-1 2.5-1.4 2.5-.6zm20.4.4c.2.4-.4.8-1.4.8-1 0-1.6-.4-1.4-.8.3-.4.9-.8 1.4-.8.5 0 1.1.4 1.4.8zm84.6-.5c0 .2-1 1.2-2.2 2.3l-2.3 1.9 1.9-2.3c1.8-2.1 2.6-2.7 2.6-1.9zm6.1 1.4c1.3 1.6 1.2 1.7-.3.4-1-.7-1.8-1.5-1.8-1.7 0-.8.8-.3 2.1 1.3zm69.3-.9c.2.4-.4.8-1.4.8-1 0-1.6-.4-1.4-.8.3-.4.9-.8 1.4-.8.5 0 1.1.4 1.4.8zm-142.4.6c0 .2-.8 1-1.7 1.7-1.6 1.3-1.7 1.2-.4-.4 1.3-1.6 2.1-2.1 2.1-1.3zM6.4 91.8c.3.5-.1.9-.9.9s-1.2-.4-.9-.9c.3-.4.7-.8.9-.8.2 0 .6.4.9.8zm66.2 1.8c.1.9 0 1.3-.4 1-.3-.4-.7-1.4-.8-2.2-.1-.9 0-1.3.4-1 .3.4.7 1.4.8 2.2zM87 91.9c0 .6-.4 1.2-.8 1.5-.5.3-.9-.1-.9-.9s.4-1.5.9-1.5c.4 0 .8.4.8.9zm94 .1c0 .4-.7.7-1.5.6-2.3-.3-2.6-1.2-.5-1.3 1.1-.1 2 .2 2 .7zm8 0c0 .5-.5 1-1.1 1-.5 0-.7-.5-.4-1 .3-.6.8-1 1.1-1 .2 0 .4.4.4 1zm63.5 0c.3.5.1 1-.4 1-.6 0-1.1-.5-1.1-1 0-.6.2-1 .4-1 .3 0 .8.4 1.1 1zm-55.8 1.3c0 .8-.6 1.4-1.4 1.4-.9 0-1-.4-.2-1.4.6-.7 1.2-1.3 1.4-1.3.1 0 .2.6.2 1.3zM93 94.2c0 .4-.4.8-.9.8-.6 0-1.2-.4-1.5-.8-.3-.5.1-.9.9-.9s1.5.4 1.5.9zm9-.8c0 .2-.8 1-1.7 1.7-1.6 1.3-1.7 1.2-.4-.4 1.3-1.6 2.1-2.1 2.1-1.3zm91 0c0 .3-.4.8-1 1.1-.5.3-1 .1-1-.4 0-.6.5-1.1 1-1.1.6 0 1 .2 1 .4zm69 0c0 .2-.8 1-1.7 1.7-1.6 1.3-1.7 1.2-.4-.4 1.3-1.6 2.1-2.1 2.1-1.3zM68.7 97c-.5 3.1-1.3 3.2-1.2.1 0-1.6.3-2.7.7-2.5.4.3.6 1.4.5 2.4zm35.9-.4c.1.9 0 1.3-.4 1-.3-.4-.7-1.4-.8-2.2-.1-.9 0-1.3.4-1 .3.4.7 1.4.8 2.2zm6.2-.1c-.3.3-.9-.2-1.2-1.2-.6-1.4-.5-1.5.5-.6.7.7 1 1.5.7 1.8zm-38.3.5c1 1.1 1.6 2 1.3 2-.3 0-1.3-.9-2.3-2-1-1.1-1.6-2-1.3-2 .3 0 1.3.9 2.3 2zm14.9-.8c-.3.4-.9.8-1.5.8-.5 0-.9-.4-.9-.8 0-.5.7-.9 1.5-.9s1.2.4.9.9zm10.7.5c1.3 1.7 1.3 1.7-.6.3-1.1-.8-2.2-1.6-2.4-1.7-.2-.2 0-.3.6-.3s1.7.8 2.4 1.7zm24.3-.1c.3.8.2 1.2-.4.9-.6-.3-1-1-1-1.6 0-1.4.7-1.1 1.4.7zm53.9.4c1 1.2.9 1.2-.4.2-.9-.6-1.8-.9-2.1-.6-.3.3-.9.1-1.2-.4-.9-1.5 2.2-.8 3.7.8zm3.3.8c-1.7 1.6-1.8 1.6-.5-.5.7-1.2 1.5-2 1.8-1.7.3.2-.3 1.2-1.3 2.2zM251 96c0 .5-.4 1-1 1-.5 0-1-.5-1-1 0-.6.5-1 1-1 .6 0 1 .4 1 1zm5.7.9c0 1.1-.5 1.8-.9 1.5-.4-.3-.5-1.1-.1-1.9.7-2.1 1.2-1.9 1 .4zm-247.6.8c1.3 1.6 1.2 1.7-.3.4-1-.7-1.8-1.5-1.8-1.7 0-.8.8-.3 2.1 1.3zm83.6-.2c0 .8-.4 1.2-.9.9-.5-.3-.6-1-.3-1.5.9-1.3 1.2-1.1 1.2.6zm16.3-1.1c0 .2-.8 1-1.7 1.7-1.6 1.3-1.7 1.2-.4-.4 1.3-1.6 2.1-2.1 2.1-1.3zm3.7 2.1c0 .8-.4 1.2-.9.9-.5-.3-.6-1-.3-1.5.9-1.3 1.2-1.1 1.2.6zm148.7-.7c.2.4-.4.8-1.4.8-1 0-1.6-.4-1.4-.8.3-.4.9-.8 1.4-.8.5 0 1.1.4 1.4.8zm-12.3 1.9c1.3 1.6 1.2 1.7-.3.4-1-.7-1.8-1.5-1.8-1.7 0-.8.8-.3 2.1 1.3zM85 100c0 .5-.2 1-.4 1-.3 0-.8-.5-1.1-1-.3-.6-.1-1 .4-1 .6 0 1.1.4 1.1 1zm4-.6c0 .2-.7.7-1.6 1-.8.3-1.2.2-.9-.4.6-1 2.5-1.4 2.5-.6zm27 0c0 .2-.8 1-1.7 1.7-1.6 1.3-1.7 1.2-.4-.4 1.3-1.6 2.1-2.1 2.1-1.3zm71.4.4c.3.5-.1.9-.9.9s-1.2-.4-.9-.9c.3-.4.7-.8.9-.8.2 0 .6.4.9.8zm5.6 2.6c0 .6-.5.3-1.1-.7-.6-.9-1.5-1.4-2.1-1.1-.7.4-.8.2-.4-.5.9-1.4 3.6.3 3.6 2.3zm4-2.4c0 .5-.5 1-1.1 1-.5 0-.7-.5-.4-1 .3-.6.8-1 1.1-1 .2 0 .4.4.4 1zm57.4-.1c-.9.9-3.4.9-3.4.1 0-.5.9-.8 2-.7 1 .1 1.7.3 1.4.6zm-161.4.5c0 .2-.8 1-1.7 1.7-1.6 1.3-1.7 1.2-.4-.4 1.3-1.6 2.1-2.1 2.1-1.3zm16 1.8c0 .4-.4.8-.9.8-.6 0-1.2-.4-1.5-.8-.3-.5.1-.9.9-.9s1.5.4 1.5.9zm72 .2c-.7.7-1.3.7-2 0-.6-.6-.3-1 1-1s1.6.4 1 1zm3.6 1.2c.1.9 0 1.3-.3 1-.4-.3-1.3 0-2.2.6-1.2 1-1.2.7.2-.8.9-1.1 1.5-2.4 1.2-2.7-.3-.4-.2-.5.2-.2s.8 1.3.9 2.1zm76.4-1.1c-1 1.2-1 1.8.1 3.2 1.2 1.7 1.2 1.7-.6.1-1.5-1.4-1.6-2-.5-3.2.7-.9 1.5-1.6 1.7-1.6.3 0 0 .7-.7 1.5zM82.4 105c-.6.6-1 .3-1-1s.4-1.6 1-1c.7.7.7 1.3 0 2zm172.2-1c0 1.2-.4 1.6-.9 1.1s-.6-1.4-.3-2c1-1.5 1.2-1.4 1.2.9zM9 103.6c0 .8-1.9 1.3-2.4.6-.3-.5.1-.9.9-.9s1.5.2 1.5.3zm7.3.9c.4.8.3 1.6-.1 1.9-.4.3-.9-.4-.9-1.5-.2-2.3.3-2.5 1-.4zm56.7-.9c0 .8-1.9 1.3-2.4.6-.3-.5.1-.9.9-.9s1.5.2 1.5.3zm39.3.9c.4.8.3 1.6-.1 1.9-.4.3-.9-.4-.9-1.5-.2-2.3.3-2.5 1-.4zm6.2.3c-.3.3-1.1 0-1.8-.7-.9-1-.8-1.1.6-.5 1 .3 1.5.9 1.2 1.2zm72.5-.9c0 .6-.4 1.2-.8 1.5-.5.3-.9-.1-.9-.9s.4-1.5.9-1.5c.4 0 .8.4.8.9zm60.5.1c-.3.5-1.2 1-1.8 1-.7 0-.6-.4.3-1 1.9-1.2 2.3-1.2 1.5 0zm-238.5.4c0 .2-.8 1-1.7 1.7-1.6 1.3-1.7 1.2-.4-.4 1.3-1.6 2.1-2.1 2.1-1.3zm64 0c0 .2-.8 1-1.7 1.7-1.6 1.3-1.7 1.2-.4-.4 1.3-1.6 2.1-2.1 2.1-1.3zm-10.9 2.9c-1 .9-1.1.8-.5-.6.3-1 .9-1.5 1.2-1.2.3.3 0 1.1-.7 1.8zm26-.6c1.3 1.6 1.2 1.7-.3.4-1-.7-1.8-1.5-1.8-1.7 0-.8.8-.3 2.1 1.3zm16.9-.9c0 .5-.7.9-1.5.9s-1.2-.4-.9-.9c.3-.4.9-.8 1.5-.8.5 0 .9.4.9.8zm13-.5c0 .2-1 1.2-2.2 2.3l-2.3 1.9 1.9-2.3c1.8-2.1 2.6-2.7 2.6-1.9zM85 108c0 .5-.5 1-1.1 1-.5 0-.7-.5-.4-1 .3-.6.8-1 1.1-1 .2 0 .4.4.4 1zm3.5.8c-.3.3-1.1 0-1.8-.7-.9-1-.8-1.1.6-.5 1 .3 1.5.9 1.2 1.2zm28.5-.8c0 .4-.7.7-1.5.6-2.3-.3-2.6-1.2-.5-1.3 1.1-.1 2 .2 2 .7zm77-.4c0 .8-1.9 1.3-2.4.6-.3-.5.1-.9.9-.9s1.5.2 1.5.3zm4.4.5c.3.3-.4.5-1.4.6-1.1.1-2-.2-2-.7 0-.8 2.5-.8 3.4.1zm54.1-.1c.3.5.1 1-.4 1-.6 0-1.1-.5-1.1-1 0-.6.2-1 .4-1 .3 0 .8.4 1.1 1zm-237.3 3.5c1-.7 1.1-.5 0 .6-1 1.1-1.6.9-3.5-1.1-2.2-2.4-2.2-2.4 0-.6 1.2 1 2.7 1.5 3.5 1.1zm60.9-.8c1.3 1.6 1.2 1.7-.3.4-1-.7-1.8-1.5-1.8-1.7 0-.8.8-.3 2.1 1.3zm32 0c1.3 1.6 1.2 1.7-.3.4-1-.7-1.8-1.5-1.8-1.7 0-.8.8-.3 2.1 1.3zm68.3-.1c.3.8.2 1.2-.4.9-.6-.3-1-1-1-1.6 0-1.4.7-1.1 1.4.7zm84.6-.1c-1 1.2-1 1.8.1 3.2 1.2 1.7 1.2 1.7-.6.1-1.5-1.4-1.6-2-.5-3.2.7-.9 1.5-1.6 1.7-1.6.3 0 0 .7-.7 1.5zm-188.8.7c-1.4 1.4-4.4 2-3.6.7.3-.5.9-.7 1.4-.4.5.3 1.1.1 1.5-.5.3-.5.9-1 1.3-1 .3 0 .1.5-.6 1.2zm26.4.8c0 1.2-.4 1.6-.9 1.1s-.6-1.4-.3-2c1-1.5 1.2-1.4 1.2.9zm-18.6-.6c0 .2-.8 1-1.7 1.7-1.6 1.3-1.7 1.2-.4-.4 1.3-1.6 2.1-2.1 2.1-1.3zm7 .4c0 .5-.7.9-1.5.9s-1.2-.4-.9-.9c.3-.4.9-.8 1.5-.8.5 0 .9.4.9.8zm23.1 1.5c-1 .9-1.1.8-.5-.6.3-1 .9-1.5 1.2-1.2.3.3 0 1.1-.7 1.8zM251 112c0 .5-.4 1-1 1-.5 0-1-.5-1-1 0-.6.5-1 1-1 .6 0 1 .4 1 1zm5.7.9c0 1.1-.5 1.8-.9 1.5-.4-.3-.5-1.1-.1-1.9.7-2.1 1.2-1.9 1 .4zm-7.6 2.8c1.3 1.6 1.2 1.7-.3.4-1-.7-1.8-1.5-1.8-1.7 0-.8.8-.3 2.1 1.3zM12 115.6c0 .8-1.9 1.3-2.4.6-.3-.5.1-.9.9-.9s1.5.2 1.5.3zm4 0c0 .8-1.9 1.3-2.4.6-.3-.5.1-.9.9-.9s1.5.2 1.5.3zm60-.2c0 .2-.8 1-1.7 1.7-1.6 1.3-1.7 1.2-.4-.4 1.3-1.6 2.1-2.1 2.1-1.3zm4 .2c0 .8-1.9 1.3-2.4.6-.3-.5.1-.9.9-.9s1.5.2 1.5.3zm19 0c0 .8-1.9 1.3-2.4.6-.3-.5.1-.9.9-.9s1.5.2 1.5.3zm3.1 1.1c1.3 1.6 1.2 1.7-.3.4-1-.7-1.8-1.5-1.8-1.7 0-.8.8-.3 2.1 1.3zm5.9-1.3c0 .2-.8 1-1.7 1.7-1.6 1.3-1.7 1.2-.4-.4 1.3-1.6 2.1-2.1 2.1-1.3zm4 .2c0 .8-1.9 1.3-2.4.6-.3-.5.1-.9.9-.9s1.5.2 1.5.3zm142.4.3c-.9.9-3.4.9-3.4.1 0-.5.9-.8 2-.7 1 .1 1.7.3 1.4.6zm6.6 2.5c-.7.7-1.3.7-2 0-.6-.6-.3-1 1-1s1.6.4 1 1zm-6.4 1.6c0 1.2-.4 1.6-.9 1.1s-.6-1.4-.3-2c1-1.5 1.2-1.4 1.2.9zM4.5 123c.1 1.7 0 3.2-.4 3.4-.3.2-.7-1.3-.7-3.5-.1-4.5.7-4.5 1.1.1zm71.6-1.7c-1 .9-1.1.8-.5-.6.3-1 .9-1.5 1.2-1.2.3.3 0 1.1-.7 1.8zm24.3-.7c.3.8.2 1.2-.4.9-.6-.3-1-1-1-1.6 0-1.4.7-1.1 1.4.7zm7.7.7c-1 .9-1.1.8-.5-.6.3-1 .9-1.5 1.2-1.2.3.3 0 1.1-.7 1.8zm14.3-1.5c.3.5-.1.9-.9.9s-1.2-.4-.9-.9c.3-.4.7-.8.9-.8.2 0 .6.4.9.8zm129.1.2c-.3.5-1.2 1-1.8 1-.7 0-.6-.4.3-1 1.9-1.2 2.3-1.2 1.5 0zm9.6 1.7c1.3 1.6 1.2 1.7-.3.4-1.7-1.3-2.2-2.1-1.4-2.1.2 0 1 .8 1.7 1.7zm-253 1.6c-1 .9-1.1.8-.5-.6.3-1 .9-1.5 1.2-1.2.3.3 0 1.1-.7 1.8zm8.3-.7c.3.8.2 1.2-.4.9-.6-.3-1-1-1-1.6 0-1.4.7-1.1 1.4.7zm52.2-.1c-.1.8-.5 1.7-.8 2.1-.5.4-.4-1.6.1-3.4.3-.9.9.1.7 1.3zm14.4-.1c0 .2-.8 1-1.7 1.7-1.6 1.3-1.7 1.2-.4-.4 1.3-1.6 2.1-2.1 2.1-1.3zm4 1.7c0 .5-.4.9-.8.9-.5 0-.9-.7-.9-1.5s.4-1.2.9-.9c.4.3.8.9.8 1.5zm3.7-.6c0 .8-.4 1.5-.9 1.5-1 0-1.1-1.4-.1-2.3.9-1 1-.9 1 .8zm4.4.2c1.3 1.6 1.2 1.7-.3.4-1.7-1.3-2.2-2.1-1.4-2.1.2 0 1 .8 1.7 1.7zm19.9-1.3c0 .2-.8 1-1.7 1.7-1.6 1.3-1.7 1.2-.4-.4 1.3-1.6 2.1-2.1 2.1-1.3zm4 1.7c0 .5-.4.9-.8.9-.5 0-.9-.7-.9-1.5s.4-1.2.9-.9c.4.3.8.9.8 1.5zm3.7-.6c0 .8-.4 1.5-.9 1.5-1 0-1.1-1.4-.1-2.3.9-1 1-.9 1 .8zM13 124c0 .5-.2 1-.4 1-.3 0-.8-.5-1.1-1-.3-.6-.1-1 .4-1 .6 0 1.1.4 1.1 1zm64 0c0 .5-.2 1-.4 1-.3 0-.8-.5-1.1-1-.3-.6-.1-1 .4-1 .6 0 1.1.4 1.1 1zm24-.6c0 .3-.4.8-1 1.1-.5.3-1 .1-1-.4 0-.6.5-1.1 1-1.1.6 0 1 .2 1 .4zm8 .6c0 .5-.2 1-.4 1-.3 0-.8-.5-1.1-1-.3-.6-.1-1 .4-1 .6 0 1.1.4 1.1 1zm143.5 0c.3.5.1 1-.4 1-.6 0-1.1-.5-1.1-1 0-.6.2-1 .4-1 .3 0 .8.4 1.1 1zM9.4 125.8c.2.4-.4.8-1.4.8-1 0-1.6-.4-1.4-.8.3-.4.9-.8 1.4-.8.5 0 1.1.4 1.4.8zm7 0c.3.5-.1.9-.9.9s-1.2-.4-.9-.9c.3-.4.7-.8.9-.8.2 0 .6.4.9.8zm57 0c.2.4-.4.8-1.4.8-1 0-1.6-.4-1.4-.8.3-.4.9-.8 1.4-.8.5 0 1.1.4 1.4.8zm32 0c.2.4-.4.8-1.4.8-1 0-1.6-.4-1.4-.8.3-.4.9-.8 1.4-.8.5 0 1.1.4 1.4.8zm155.6.6c-.7.7-1.3.7-2 0-.6-.6-.3-1 1-1s1.6.4 1 1zm-10 1.6c0 .5-.4 1-1 1-.5 0-1-.5-1-1 0-.6.5-1 1-1 .6 0 1 .4 1 1zm5.7.9c0 1.1-.5 1.8-.9 1.5-.4-.3-.5-1.1-.1-1.9.7-2.1 1.2-1.9 1 .4zm4.4.8c1.3 1.6 1.2 1.7-.3.4-1.7-1.3-2.2-2.1-1.4-2.1.2 0 1 .8 1.7 1.7zm-176.5 1.8c.1.8-.2 1.5-.6 1.5-.5 0-.8-.9-.7-2 .1-2.1 1-1.8 1.3.5zm4.4-1.1c-.7.7-1.3.7-2 0-.6-.6-.3-1 1-1s1.6.4 1 1zm7.5-.6c-.3.3 0 1.1.6 1.9 1.7 2 .5 1.6-1.4-.5-1.5-1.6-1.5-1.9-.2-1.9.8 0 1.3.3 1 .5zm20.1 1.7c.1.8-.2 1.5-.6 1.5-.5 0-.8-.9-.7-2 .1-2.1 1-1.8 1.3.5zm4.4-1.1c-.7.7-1.3.7-2 0-.6-.6-.3-1 1-1s1.6.4 1 1zM14.4 133c-.6.6-1 .3-1-1s.4-1.6 1-1c.7.7.7 1.3 0 2zm60.2-1c0 1.2-.4 1.6-.9 1.1s-.6-1.4-.3-2c1-1.5 1.2-1.4 1.2.9zm32 0c0 1.2-.4 1.6-.9 1.1s-.6-1.4-.3-2c1-1.5 1.2-1.4 1.2.9zm142.5-.3c1.3 1.6 1.2 1.7-.3.4-1-.7-1.8-1.5-1.8-1.7 0-.8.8-.3 2.1 1.3zm-239 1c1.3 1.6 1.2 1.7-.3.4-1.7-1.3-2.2-2.1-1.4-2.1.2 0 1 .8 1.7 1.7zm69.9-1.3c0 .2-.8 1-1.7 1.7-1.6 1.3-1.7 1.2-.4-.4 1.3-1.6 2.1-2.1 2.1-1.3zm13 .6c0 .5-.5 1-1.1 1-.5 0-.7-.5-.4-1 .3-.6.8-1 1.1-1 .2 0 .4.4.4 1zm19-.6c0 .2-.8 1-1.7 1.7-1.6 1.3-1.7 1.2-.4-.4 1.3-1.6 2.1-2.1 2.1-1.3zm142.4.5c-.9.9-3.4.9-3.4.1 0-.5.9-.8 2-.7 1 .1 1.7.3 1.4.6zm-165.6 2.6c-.3.3-.9-.2-1.2-1.2-.6-1.4-.5-1.5.5-.6.7.7 1 1.5.7 1.8zm32 0c-.3.3-.9-.2-1.2-1.2-.6-1.4-.5-1.5.5-.6.7.7 1 1.5.7 1.8zm140.6-.3c-.3.4-.9.8-1.5.8-.5 0-.9-.4-.9-.8 0-.5.7-.9 1.5-.9s1.2.4.9.9zm-177.1 1.3c-.3.9-.8 1.4-1 1.1-.3-.3-.2-.9.2-1.5.9-1.6 1.5-1.3.8.4zm14.7-1.1c0 .2-.8 1-1.7 1.7-1.6 1.3-1.7 1.2-.4-.4 1.3-1.6 2.1-2.1 2.1-1.3zm17.3 1.1c-.3.9-.8 1.4-1 1.1-.3-.3-.2-.9.2-1.5.9-1.6 1.5-1.3.8.4zm138.3.5c0 1.2-.4 1.6-.9 1.1s-.6-1.4-.3-2c1-1.5 1.2-1.4 1.2.9zm-245.4.4c-.4.6-.7 1.4-.7 1.8 0 1.9-1.1 1.4-1.1-.6 0-1.2.6-2.3 1.3-2.3.6 0 .9.5.5 1.1zm63.4-.2c.3.4-.1.5-1 .4-.8-.1-1.8-.5-2.2-.8-.3-.4.1-.5 1-.4.8.1 1.8.5 2.2.8zm31.9-.3c.3.5.2 1.2-.3 1.5-.5.3-.9-.1-.9-.9 0-1.7.3-1.9 1.2-.6zm147 .1c-.3.5-1.2 1-1.8 1-.7 0-.6-.4.3-1 1.9-1.2 2.3-1.2 1.5 0zm9.6 1.7c1.3 1.6 1.2 1.7-.3.4-1.7-1.3-2.2-2.1-1.4-2.1.2 0 1 .8 1.7 1.7zm-174.1.7c0 .2-.8 1-1.7 1.7-1.6 1.3-1.7 1.2-.4-.4 1.3-1.6 2.1-2.1 2.1-1.3zm3.9.9c.8 1 .7 1.4-.2 1.4-.8 0-1.4-.6-1.4-1.4 0-.7.1-1.3.2-1.3.2 0 .8.6 1.4 1.3zm28.1-.9c0 .2-.8 1-1.7 1.7-1.6 1.3-1.7 1.2-.4-.4 1.3-1.6 2.1-2.1 2.1-1.3zM6.1 140.7c1.3 1.6 1.2 1.7-.3.4-1-.7-1.8-1.5-1.8-1.7 0-.8.8-.3 2.1 1.3zm90.4-.8c-.9.8-3.6 1-3 .2.2-.4 1.1-.8 2-.8.8 0 1.3.3 1 .6zm156 .1c.3.5.1 1-.4 1-.6 0-1.1-.5-1.1-1 0-.6.2-1 .4-1 .3 0 .8.4 1.1 1zm-235.8 2.7c0 .9-.4 1-1.4.2-.7-.6-1.3-1.2-1.3-1.4 0-.1.6-.2 1.3-.2.8 0 1.4.6 1.4 1.4zm63.8.3c1 1.1 1.6 2 1.3 2-.3 0-1.3-.9-2.3-2-1-1.1-1.6-2-1.3-2 .3 0 1.3.9 2.3 2zm31.6-.3c1.3 1.6 1.2 1.7-.3.4-1-.7-1.8-1.5-1.8-1.7 0-.8.8-.3 2.1 1.3zm149.3-.5c-.3.4-.9.8-1.5.8-.5 0-.9-.4-.9-.8 0-.5.7-.9 1.5-.9s1.2.4.9.9zm-248.4.1c0 .2-.8 1.1-1.8 2-1.5 1.4-1.9 1.5-1.9.2 0-.8.4-1.2.8-.9.4.2 1 0 1.4-.6.6-1 1.5-1.4 1.5-.7zm64 0c0 .2-.8 1.1-1.8 2-1.5 1.4-1.9 1.5-1.9.2 0-.8.4-1.2.8-.9.4.2 1 0 1.4-.6.6-1 1.5-1.4 1.5-.7zm-72.6 2.3c.3.8.2 1.2-.4.9-.6-.3-1-1-1-1.6 0-1.4.7-1.1 1.4.7zm90.6-.7c0 .6-.4 1.2-.8 1.5-.5.3-.9-.1-.9-.9s.4-1.5.9-1.5c.4 0 .8.4.8.9zm5.3.6c.4.8.3 1.6-.1 1.9-.4.3-.9-.4-.9-1.5-.2-2.3.3-2.5 1-.4zm7.1-.3c-.3.4-.9.8-1.5.8-.5 0-.9-.4-.9-.8 0-.5.7-.9 1.5-.9s1.2.4.9.9zm15 .4c.3.8.2 1.2-.4.9-.6-.3-1-1-1-1.6 0-1.4.7-1.1 1.4.7zM251 144c0 .5-.4 1-1 1-.5 0-1-.5-1-1 0-.6.5-1 1-1 .6 0 1 .4 1 1zm-162 .4c0 .2-.8 1-1.7 1.7-1.6 1.3-1.7 1.2-.4-.4 1.3-1.6 2.1-2.1 2.1-1.3zm7.1 2.9c-1 .9-1.1.8-.5-.6.3-1 .9-1.5 1.2-1.2.3.3 0 1.1-.7 1.8zm153 .4c1.3 1.6 1.2 1.7-.3.4-1.7-1.3-2.2-2.1-1.4-2.1.2 0 1 .8 1.7 1.7zm-244.5.8c-.3 2.3-1.2 2.6-1.3.5-.1-1.1.2-2 .7-2 .4 0 .7.7.6 1.5zm7.9-.5c.3.5.1 1-.4 1-.6 0-1.1-.5-1.1-1 0-.6.2-1 .4-1 .3 0 .8.4 1.1 1zm56.1.5c-.1.8-.5 1.7-.8 2.1-.5.4-.4-1.6.1-3.4.3-.9.9.1.7 1.3zm7.9-.5c.3.5.1 1-.4 1-.6 0-1.1-.5-1.1-1 0-.6.2-1 .4-1 .3 0 .8.4 1.1 1zm32.5-.6c0 .3-.4.8-1 1.1-.5.3-1 .1-1-.4 0-.6.5-1.1 1-1.1.6 0 1 .2 1 .4zm7 0c0 .2-.8 1-1.7 1.7-1.6 1.3-1.7 1.2-.4-.4 1.3-1.6 2.1-2.1 2.1-1.3zm138.4.5c-.9.9-3.4.9-3.4.1 0-.5.9-.8 2-.7 1 .1 1.7.3 1.4.6zm-153.5 1.4c.8 1 .7 1.4-.2 1.4-.8 0-1.4-.6-1.4-1.4 0-.7.1-1.3.2-1.3.2 0 .8.6 1.4 1.3zm160.5.9c-.3.4-.9.8-1.5.8-.5 0-.9-.4-.9-.8 0-.5.7-.9 1.5-.9s1.2.4.9.9zM110.6 152c0 1.2-.4 1.6-.9 1.1s-.6-1.4-.3-2c1-1.5 1.2-1.4 1.2.9zm144 0c0 1.2-.4 1.6-.9 1.1s-.6-1.4-.3-2c1-1.5 1.2-1.4 1.2.9zm-243.1 0c.3.6-.1.7-.9.4-1.8-.7-2.1-1.4-.7-1.4.6 0 1.3.4 1.6 1zm64 0c.3.6-.1.7-.9.4-1.8-.7-2.1-1.4-.7-1.4.6 0 1.3.4 1.6 1zm14.5-.4c0 .8-1.9 1.3-2.4.6-.3-.5.1-.9.9-.9s1.5.2 1.5.3zm17.5.4c.3.6-.1.7-.9.4-1.8-.7-2.1-1.4-.7-1.4.6 0 1.3.4 1.6 1zm11 .8c-.3.3-1.1 0-1.8-.7-.9-1-.8-1.1.6-.5 1 .3 1.5.9 1.2 1.2zm133-.8c-.3.5-1.2 1-1.8 1-.7 0-.6-.4.3-1 1.9-1.2 2.3-1.2 1.5 0zm-166.1 1.8c.2.4-.4.8-1.4.8-1 0-1.6-.4-1.4-.8.3-.4.9-.8 1.4-.8.5 0 1.1.4 1.4.8zm16.6-.4c0 .2-.8 1-1.7 1.7-1.6 1.3-1.7 1.2-.4-.4 1.3-1.6 2.1-2.1 2.1-1.3zm20-.1c0 .2-1 1.2-2.2 2.3l-2.3 1.9 1.9-2.3c1.8-2.1 2.6-2.7 2.6-1.9zm-107.3 2c0 .8-.6 1.4-1.4 1.4-.9 0-1-.4-.2-1.4.6-.7 1.2-1.3 1.4-1.3.1 0 .2.6.2 1.3zm64 0c0 .8-.6 1.4-1.4 1.4-.9 0-1-.4-.2-1.4.6-.7 1.2-1.3 1.4-1.3.1 0 .2.6.2 1.3zm-68.1.9c.3.4-.1.5-1 .4-.8-.1-1.8-.5-2.2-.8-.3-.4.1-.5 1-.4.8.1 1.8.5 2.2.8zm56.1.3c0 .8-.4 1.2-.9.9-.5-.3-.6-1-.3-1.5.9-1.3 1.2-1.1 1.2.6zm7.7-.7c.2.4-.5.9-1.7.9-1.7.2-1.9 0-.7-.7 1.8-1.2 1.8-1.2 2.4-.2zm31.1.2c-.3.5-1.2 1-1.8 1-.7 0-.6-.4.3-1 1.9-1.2 2.3-1.2 1.5 0zm4.9.1c.3.3-.4.5-1.4.6-1.1.1-2-.2-2-.7 0-.8 2.5-.8 3.4.1zm6.6-.1c0 .4-.7.7-1.5.6-2.3-.3-2.6-1.2-.5-1.3 1.1-.1 2 .2 2 .7zm135.5 0c.3.5.1 1-.4 1-.6 0-1.1-.5-1.1-1 0-.6.2-1 .4-1 .3 0 .8.4 1.1 1zM205 190.5c0 18.8-.3 34.4-.6 34.7-.3.3-1.4.4-2.4.1-1.5-.4-1.8-1.3-1.6-3.8.1-1.9-.1-3.2-.6-2.9-.4.3-.8.1-.8-.5 0-.5.3-1.2.8-1.5.9-.5.8-8.9-.2-10.5-.4-.6-.3-1.1.1-1.1.5 0 .8-2.4.8-5.4 0-3-.3-5.2-.6-5-.3.2-.6-1-.5-2.6.1-1.7.3-3 .6-3 .9 0 .5-10.4-.4-11.8-.4-.7-.2-1.2.6-1.3 1 0 1-.2 0-.6-.6-.2-.9-.9-.6-1.5 1-1.7 1.1-5.1.2-7.1-.5-.9-.5-1.7-.1-1.7 1.3 0 1.1-6-.1-6-1.7-.1 2.1-2.7 3.9-2.7 1.3 0 1.5 4.1 1.5 34.2zm-124.3-32c0 .8-.4 1.2-.9.9-.5-.3-.6-1-.3-1.5.9-1.3 1.2-1.1 1.2.6zm4.3 0c-.6.8-.8 2-.4 2.7.5 1 .4 1-.6.1-1.1-1-1.1-1.5 0-2.8.7-.8 1.5-1.5 1.7-1.5.3 0 0 .7-.7 1.5zm106-.5c0 .5-.5 1-1.1 1-.5 0-.7-.5-.4-1 .3-.6.8-1 1.1-1 .2 0 .4.4.4 1zM6.8 160.5c-.3.3-.9-.2-1.2-1.2-.6-1.4-.5-1.5.5-.6.7.7 1 1.5.7 1.8zm87.8.1c.1.9 0 1.3-.4 1-.3-.4-.7-1.4-.8-2.2-.1-.9 0-1.3.4-1 .3.4.7 1.4.8 2.2zm20.4-.5c0 .5-.4.9-.8.9-.5 0-.9-.7-.9-1.5s.4-1.2.9-.9c.4.3.8.9.8 1.5zm61.3-.6c-.3.9-.8 1.4-1 1.1-.3-.3-.2-.9.2-1.5.9-1.6 1.5-1.3.8.4zm6.7-1.1c0 .2-.8 1-1.7 1.7-1.6 1.3-1.7 1.2-.4-.4 1.3-1.6 2.1-2.1 2.1-1.3zm-172 1c0 .3-.4.8-1 1.1-.5.3-1 .1-1-.4 0-.6.5-1.1 1-1.1.6 0 1 .2 1 .4zm64 .6c0 .5-.2 1-.4 1-.3 0-.8-.5-1.1-1-.3-.6-.1-1 .4-1 .6 0 1.1.4 1.1 1zm25.4.6c.3.8.2 1.2-.4.9-.6-.3-1-1-1-1.6 0-1.4.7-1.1 1.4.7zm7.2-.4c.5.7.3.8-.5.4-.7-.5-2.2 0-3.4 1.1l-2.2 1.8 1.9-2.3c2.1-2.5 3.2-2.7 4.2-1zM251 160c0 .5-.4 1-1 1-.5 0-1-.5-1-1 0-.6.5-1 1-1 .6 0 1 .4 1 1zm-57 1.4c0 .2-.8 1-1.7 1.7-1.6 1.3-1.7 1.2-.4-.4 1.3-1.6 2.1-2.1 2.1-1.3zm-182.9 2.3c1.3 1.6 1.2 1.7-.3.4-1-.7-1.8-1.5-1.8-1.7 0-.8.8-.3 2.1 1.3zm64 0c1.3 1.6 1.2 1.7-.3.4-1-.7-1.8-1.5-1.8-1.7 0-.8.8-.3 2.1 1.3zm104 0c1.3 1.6 1.2 1.7-.3.4-1.7-1.3-2.2-2.1-1.4-2.1.2 0 1 .8 1.7 1.7zm70 0c1.3 1.6 1.2 1.7-.3.4-1.7-1.3-2.2-2.1-1.4-2.1.2 0 1 .8 1.7 1.7zM69 163.4c0 .3-.4.8-1 1.1-.5.3-1 .1-1-.4 0-.6.5-1.1 1-1.1.6 0 1 .2 1 .4zm10.4.4c.3.5-.1.9-.9.9s-1.2-.4-.9-.9c.3-.4.7-.8.9-.8.2 0 .6.4.9.8zm5.6-.4c0 .3-.4.8-1 1.1-.5.3-1 .1-1-.4 0-.6.5-1.1 1-1.1.6 0 1 .2 1 .4zm5-.1c0 .2-1 1.2-2.2 2.3l-2.3 1.9 1.9-2.3c1.8-2.1 2.6-2.7 2.6-1.9zm4.4.8c.3.3-.4.5-1.4.6-1.1.1-2-.2-2-.7 0-.8 2.5-.8 3.4.1zm20 .1c-.3.4-1.1.5-1.9.1-2.1-.7-1.9-1.2.4-1 1.1 0 1.8.5 1.5.9zm4.3.5c0 .9-.4 1-1.4.2-.7-.6-1.3-1.2-1.3-1.4 0-.1.6-.2 1.3-.2.8 0 1.4.6 1.4 1.4zm64.7-.9c.3.5-.1.9-.9.9s-1.2-.4-.9-.9c.3-.4.7-.8.9-.8.2 0 .6.4.9.8zm5.6-.4c0 .3-.4.8-1 1.1-.5.3-1 .1-1-.4 0-.6.5-1.1 1-1.1.6 0 1 .2 1 .4zm8 .6c0 .5-.5 1-1.1 1-.5 0-.7-.5-.4-1 .3-.6.8-1 1.1-1 .2 0 .4.4.4 1zm57.4-.1c-.9.9-3.4.9-3.4.1 0-.5.9-.8 2-.7 1 .1 1.7.3 1.4.6zM8.6 166.3c0 1.3-.6 2.4-1.3 2.4-.6 0-.9-.5-.5-1.1.4-.6.7-1.4.8-1.9.5-2.6 1-2.3 1 .6zm184.4-.5c0 .5-.7.9-1.5.9s-1.2-.4-.9-.9c.3-.4.9-.8 1.5-.8.5 0 .9.4.9.8zm-122.4 1.7c-.1.8-.5 1.7-.8 2.1-.5.4-.4-1.6.1-3.4.3-.9.9.1.7 1.3zm184 .5c0 1.2-.4 1.6-.9 1.1s-.6-1.4-.3-2c1-1.5 1.2-1.4 1.2.9zM16 167.4c0 .2-.8 1-1.7 1.7-1.6 1.3-1.7 1.2-.4-.4 1.3-1.6 2.1-2.1 2.1-1.3zm63 .5c0 .6-.4 1.2-.8 1.5-.5.3-.9-.1-.9-.9s.4-1.5.9-1.5c.4 0 .8.4.8.9zm12.5.1c.3.6-.1.7-.9.4-1.8-.7-2.1-1.4-.7-1.4.6 0 1.3.4 1.6 1zm14.5-.4c0 .8-1.9 1.3-2.4.6-.3-.5.1-.9.9-.9s1.5.2 1.5.3zm145.5.4c-.3.5-1.2 1-1.8 1-.7 0-.6-.4.3-1 1.9-1.2 2.3-1.2 1.5 0zm-150.1 1.8c.2.4-.4.8-1.4.8-1 0-1.6-.4-1.4-.8.3-.4.9-.8 1.4-.8.5 0 1.1.4 1.4.8zm11.6.1c0 .5-.8 1.5-1.7 2.2-1.6 1.2-1.7 1.2-.6-.2.7-.9 1-1.9.6-2.2-.3-.4-.1-.7.5-.7.7 0 1.2.4 1.2.9zm7.4.7c.3.8.2 1.2-.4.9-.6-.3-1-1-1-1.6 0-1.4.7-1.1 1.4.7zm64.6-1.2c0 .2-.7.7-1.6 1-.8.3-1.2.2-.9-.4.6-1 2.5-1.4 2.5-.6zM2.6 172c0 1.2-.4 1.6-.9 1.1s-.6-1.4-.3-2c1-1.5 1.2-1.4 1.2.9zm4.5-.3c1.3 1.6 1.2 1.7-.3.4-1-.7-1.8-1.5-1.8-1.7 0-.8.8-.3 2.1 1.3zm87.9-1.3c0 .2-.8 1-1.7 1.7-1.6 1.3-1.7 1.2-.4-.4 1.3-1.6 2.1-2.1 2.1-1.3zm-28.9 2.9c-1 .9-1.1.8-.5-.6.3-1 .9-1.5 1.2-1.2.3.3 0 1.1-.7 1.8zm50.9-1.9c0 .3-.4.8-1 1.1-.5.3-1 .1-1-.4 0-.6.5-1.1 1-1.1.6 0 1 .2 1 .4zm69.1 1.3c1.3 1.6 1.2 1.7-.3.4-1.7-1.3-2.2-2.1-1.4-2.1.2 0 1 .8 1.7 1.7zm4.9-.8c0 .6-.4 1.2-.8 1.5-.5.3-.9-.1-.9-.9s.4-1.5.9-1.5c.4 0 .8.4.8.9zm7.4.2c.3.3-.4.5-1.4.6-1.1.1-2-.2-2-.7 0-.8 2.5-.8 3.4.1zm54.1-.1c.3.5.1 1-.4 1-.6 0-1.1-.5-1.1-1 0-.6.2-1 .4-1 .3 0 .8.4 1.1 1zm-155.9 2.6c.1.9 0 1.3-.4 1-.3-.4-.7-1.4-.8-2.2-.1-.9 0-1.3.4-1 .3.4.7 1.4.8 2.2zm5.4-1.2c0 .2-.8 1-1.7 1.7-1.6 1.3-1.7 1.2-.4-.4 1.3-1.6 2.1-2.1 2.1-1.3zm19.4.4c.2.4-.4.8-1.4.8-1 0-1.6-.4-1.4-.8.3-.4.9-.8 1.4-.8.5 0 1.1.4 1.4.8zm-38.9 1.4c.5-.4.5-.1.1.6-.6 1-1.1 1-2.2.1-.8-.6-1.4-1.4-1.4-1.6 0-.3.6 0 1.3.6.8.6 1.8.7 2.2.3zm28.6.5c1.3 1.6 1.2 1.7-.3.4-1.7-1.3-2.2-2.1-1.4-2.1.2 0 1 .8 1.7 1.7zm74.9-.1c0 .8-1.9 1.3-2.4.6-.3-.5.1-.9.9-.9s1.5.2 1.5.3zm65 .4c0 .5-.4 1-1 1-.5 0-1-.5-1-1 0-.6.5-1 1-1 .6 0 1 .4 1 1zM9 178.4c-.7.7-1.3.7-2 0-.6-.6-.3-1 1-1s1.6.4 1 1zm3.6 2.7c.1 2.2-.2 3.5-.6 2.9-.7-1.2-.5-7 .3-7 .1 0 .3 1.8.3 4.1zm104-1.6c.1.8-.2 1.5-.6 1.5-.5 0-.8-.9-.7-2 .1-2.1 1-1.8 1.3.5zm4.4-1.1c-.7.7-1.3.7-2 0-.6-.6-.3-1 1-1s1.6.4 1 1zm68.4-.6c.3.5-.1.9-.9.9s-1.5-.4-1.5-.9c0-.4.4-.8.9-.8.6 0 1.2.4 1.5.8zm-106.4.6c0 .2-.6.9-1.4 1.5-1.1.9-1.6.9-2.2 0-.4-.7-.3-.9.4-.5.6.3 1.3.2 1.7-.4.6-1 1.5-1.4 1.5-.6zm166.1 1.3c1.3 1.6 1.2 1.7-.3.4-1.7-1.3-2.2-2.1-1.4-2.1.2 0 1 .8 1.7 1.7zM4.5 180c.3.5.1 1-.4 1-.6 0-1.1-.5-1.1-1 0-.6.2-1 .4-1 .3 0 .8.4 1.1 1zm64-.1c.3.5.2 1.2-.3 1.5-.5.3-.9-.1-.9-.9 0-1.7.3-1.9 1.2-.6zm26.1.3c.4.7.4 1-.1.6-.4-.4-1.5-.2-2.4.5-1.4 1.1-1.4 1-.2-.6 1.6-2 1.8-2.1 2.7-.5zm6.4-.2c0 .4-.7.7-1.5.6-2.3-.3-2.6-1.2-.5-1.3 1.1-.1 2 .2 2 .7zm4-.6c0 .2-.7.7-1.6 1-.8.3-1.2.2-.9-.4.6-1 2.5-1.4 2.5-.6zm75.5.6c.3.5.1 1-.4 1-.6 0-1.1-.5-1.1-1 0-.6.2-1 .4-1 .3 0 .8.4 1.1 1zm73.9-.1c-.9.9-3.4.9-3.4.1 0-.5.9-.8 2-.7 1 .1 1.7.3 1.4.6zM8.3 181.5c-.3.9-.8 1.4-1 1.1-.3-.3-.2-.9.2-1.5.9-1.6 1.5-1.3.8.4zm100.7-1.1c0 .2-.8 1-1.7 1.7-1.6 1.3-1.7 1.2-.4-.4 1.3-1.6 2.1-2.1 2.1-1.3zm11.8 2.1c-.3.3-.9-.2-1.2-1.2-.6-1.4-.5-1.5.5-.6.7.7 1 1.5.7 1.8zm76.2-2.1c0 .2-.8 1-1.7 1.7-1.6 1.3-1.7 1.2-.4-.4 1.3-1.6 2.1-2.1 2.1-1.3zm-107.3 2c-.1.6.4 1 1.1.8.9-.1 1.2.7.9 2.5l-.4 2.8-13.1.3c-7.3.1-13.2-.1-13.3-.5 0-.4-.2-1.6-.4-2.5-.4-2.1 1.6-2.7 7.8-2.5 2.6.2 4.7-.1 4.7-.5s.5-.8 1.1-.8c.5 0 .8.3.6.7-.3.5 1.9.8 4.8.8 3.7 0 5.1-.3 4.4-1.1-.5-.7-.4-1.1.6-1.1.7 0 1.3.5 1.2 1.1zm84.3-1c0 .2-.8 1-1.7 1.7-1.6 1.3-1.7 1.2-.4-.4 1.3-1.6 2.1-2.1 2.1-1.3zm16 0c0 .2-.8 1-1.7 1.7-1.6 1.3-1.7 1.2-.4-.4 1.3-1.6 2.1-2.1 2.1-1.3zM98.4 185c-.6.6-1 .3-1-1s.4-1.6 1-1c.7.7.7 1.3 0 2zm17.9-1.5c-.3.9-.8 1.4-1 1.1-.3-.3-.2-.9.2-1.5.9-1.6 1.5-1.3.8.4zm138.3.5c0 1.2-.4 1.6-.9 1.1s-.6-1.4-.3-2c1-1.5 1.2-1.4 1.2.9zm-152.1.8c-.3.3-1.1 0-1.8-.7-.9-1-.8-1.1.6-.5 1 .3 1.5.9 1.2 1.2zm83.9-.2c.3.8.2 1.2-.4.9-.6-.3-1-1-1-1.6 0-1.4.7-1.1 1.4.7zm65.1-.6c-.3.5-1.2 1-1.8 1-.7 0-.6-.4.3-1 1.9-1.2 2.3-1.2 1.5 0zm-70.8 1.5c0 .8-.4 1.2-.9.9-.5-.3-.6-1-.3-1.5.9-1.3 1.2-1.1 1.2.6zm16 1.5c.1 1.1-.2 2-.7 2-.6 0-.7-1.7-.1-3.8.3-.8.7.1.8 1.8zm-77.7-.6c0 .2-.8 1-1.7 1.7-1.6 1.3-1.7 1.2-.4-.4 1.3-1.6 2.1-2.1 2.1-1.3zM6.4 187.8c.3.5-.1.9-.9.9s-1.2-.4-.9-.9c.3-.4.7-.8.9-.8.2 0 .6.4.9.8zm246.1.2c.3.5.1 1-.4 1-.6 0-1.1-.5-1.1-1 0-.6.2-1 .4-1 .3 0 .8.4 1.1 1zm-71.5.4c0 .2-.8 1-1.7 1.7-1.6 1.3-1.7 1.2-.4-.4 1.3-1.6 2.1-2.1 2.1-1.3zm-79.9 1.9c-.6.8-.7 1.8-.3 2.2.4.5.1.5-.6.1-1-.6-1-1.1-.1-2.2.6-.8 1.4-1.4 1.6-1.4.3 0 0 .6-.6 1.3zm3.5 1.5c-.3.3 0 1.2.6 2.1 1 1.3 1 1.4-.2.4-1.6-1.5-2.3-4.6-.8-3.7.5.3.7.9.4 1.2zm6.2.7c-.3.3-.9-.2-1.2-1.2-.6-1.4-.5-1.5.5-.6.7.7 1 1.5.7 1.8zm11.6.1c.3.8.2 1.2-.4.9-.6-.3-1-1-1-1.6 0-1.4.7-1.1 1.4.7zm62.4-.1c.3.3-.4.4-1.6.2-1.2-.2-2.4-.6-2.8-1-.4-.3.4-.4 1.6-.2 1.2.2 2.5.7 2.8 1zm66.2-.5c0 .5-.4 1-1 1-.5 0-1-.5-1-1 0-.6.5-1 1-1 .6 0 1 .4 1 1zM9.1 193.7c1.3 1.6 1.2 1.7-.3.4-1-.7-1.8-1.5-1.8-1.7 0-.8.8-.3 2.1 1.3zm163.5 1.9c.1.9 0 1.3-.4 1-.3-.4-.7-1.4-.8-2.2-.1-.9 0-1.3.4-1 .3.4.7 1.4.8 2.2zm21.4-2.1c0 .2-.6.8-1.3 1.4-1 .8-1.4.7-1.4-.2 0-.8.6-1.4 1.4-1.4.7 0 1.3.1 1.3.2zm-15.4 2.5c0 1.2-.4 1.6-.9 1.1s-.6-1.4-.3-2c1-1.5 1.2-1.4 1.2.9zm70.5-.3c1.3 1.6 1.2 1.7-.3.4-1.7-1.3-2.2-2.1-1.4-2.1.2 0 1 .8 1.7 1.7zm-133.1-.3c0 .2-.8 1-1.7 1.7-1.6 1.3-1.7 1.2-.4-.4 1.3-1.6 2.1-2.1 2.1-1.3zm68 0c0 .2-.8 1-1.7 1.7-1.6 1.3-1.7 1.2-.4-.4 1.3-1.6 2.1-2.1 2.1-1.3zm13 .6c0 .5-.2 1-.4 1-.3 0-.8-.5-1.1-1-.3-.6-.1-1 .4-1 .6 0 1.1.4 1.1 1zm57.4-.1c-.9.9-3.4.9-3.4.1 0-.5.9-.8 2-.7 1 .1 1.7.3 1.4.6zm-63.3 3.8c1.3 1.6 1.2 1.7-.3.4-1.7-1.3-2.2-2.1-1.4-2.1.2 0 1 .8 1.7 1.7zm63.5.3c0 1.2-.4 1.6-.9 1.1s-.6-1.4-.3-2c1-1.5 1.2-1.4 1.2.9zM9 199.6c0 .8-1.9 1.3-2.4.6-.3-.5.1-.9.9-.9s1.5.2 1.5.3zm7.3.9c.4.8.3 1.6-.1 1.9-.4.3-.9-.4-.9-1.5-.2-2.3.3-2.5 1-.4zm88.7-.9c0 .8-1.9 1.3-2.4.6-.3-.5.1-.9.9-.9s1.5.2 1.5.3zm7.3.9c.4.8.3 1.6-.1 1.9-.4.3-.9-.4-.9-1.5-.2-2.3.3-2.5 1-.4zm6.2.3c-.3.3-1.1 0-1.8-.7-.9-1-.8-1.1.6-.5 1 .3 1.5.9 1.2 1.2zm66.1.8c0 2-1.1 2.5-1.1.6 0-.4-.3-1.2-.7-1.8-.4-.6-.1-1.1.5-1.1.7 0 1.3 1.1 1.3 2.3zm66.9-1.6c-.3.5-1.2 1-1.8 1-.7 0-.6-.4.3-1 1.9-1.2 2.3-1.2 1.5 0zm-238.5.4c0 .2-.8 1-1.7 1.7-1.6 1.3-1.7 1.2-.4-.4 1.3-1.6 2.1-2.1 2.1-1.3zm96 0c0 .2-.8 1-1.7 1.7-1.6 1.3-1.7 1.2-.4-.4 1.3-1.6 2.1-2.1 2.1-1.3zm13 .9c0 .2-1 1.2-2.2 2.3l-2.3 1.9 1.9-2.3c1.8-2.1 2.6-2.7 2.6-1.9zm71.1 1c-.6.8-.7 1.8-.3 2.2.4.5.1.5-.6.1-1-.6-1-1.1-.1-2.2.6-.8 1.4-1.4 1.6-1.4.3 0 0 .6-.6 1.3zm3.6.7c.1 1.1-.2 2-.7 2-.6 0-.7-1.7-.1-3.8.3-.8.7.1.8 1.8zm-22.2.2c.5-.4.5-.1.1.6-.6 1-1.1 1-2.2.1-.8-.6-1.4-1.4-1.4-1.6 0-.3.6 0 1.3.6.8.6 1.8.7 2.2.3zm-57.5.8c0 .4-.7.7-1.5.6-2.3-.3-2.6-1.2-.5-1.3 1.1-.1 2 .2 2 .7zm71-.6c0 .2-.8 1-1.7 1.7-1.6 1.3-1.7 1.2-.4-.4 1.3-1.6 2.1-2.1 2.1-1.3zm64.5.6c.3.5.1 1-.4 1-.6 0-1.1-.5-1.1-1 0-.6.2-1 .4-1 .3 0 .8.4 1.1 1zm-237.3 3.5c1-.7 1.1-.5 0 .6-1 1.1-1.6.9-3.5-1.1-2.2-2.4-2.2-2.4 0-.6 1.2 1 2.7 1.5 3.5 1.1zm92.9-.8c1.3 1.6 1.2 1.7-.3.4-1-.7-1.8-1.5-1.8-1.7 0-.8.8-.3 2.1 1.3zm68.7.2c-.7.9-1.3 1.8-1.5 2-.1.2-.1-.5 0-1.6 0-1.1.7-2 1.4-2 1 0 1 .4.1 1.6zm-78.1.6c0 .8-.4 1.2-.9.9-.5-.3-.6-1-.3-1.5.9-1.3 1.2-1.1 1.2.6zm83.5 0c.2-.3.5.2.5 1 0 1.9 0 1.9-2.3-.7-1.2-1.4-1.3-1.8-.3-1 .9.6 1.8 1 2.1.7zm15.3.5c1 1.1 1.6 2 1.3 2-.3 0-1.3-.9-2.3-2-1-1.1-1.6-2-1.3-2 .3 0 1.3.9 2.3 2zm-93-.1c.3.5.2 1.2-.3 1.5-.5.3-.9-.1-.9-.9 0-1.7.3-1.9 1.2-.6zm7.8.6c.4.8.3 1.6-.1 1.9-.4.3-.9-.4-.9-1.5-.2-2.3.3-2.5 1-.4zm3.3 1.3c-1.7 1.6-1.8 1.6-.5-.5.7-1.2 1.5-2 1.8-1.7.3.2-.3 1.2-1.3 2.2zm72.5-.5c-1 .9-1.1.8-.5-.6.3-1 .9-1.5 1.2-1.2.3.3 0 1.1-.7 1.8zM251 208c0 .5-.4 1-1 1-.5 0-1-.5-1-1 0-.6.5-1 1-1 .6 0 1 .4 1 1zm-1.9 3.7c1.3 1.6 1.2 1.7-.3.4-1-.7-1.8-1.5-1.8-1.7 0-.8.8-.3 2.1 1.3zM12 211.6c0 .8-1.9 1.3-2.4.6-.3-.5.1-.9.9-.9s1.5.2 1.5.3zm4 0c0 .8-1.9 1.3-2.4.6-.3-.5.1-.9.9-.9s1.5.2 1.5.3zm83-.2c0 .3-.4.8-1 1.1-.5.3-1 .1-1-.4 0-.6.5-1.1 1-1.1.6 0 1 .2 1 .4zm3.7 1.3c0 .9-.4 1-1.4.2-.7-.6-1.3-1.2-1.3-1.4 0-.1.6-.2 1.3-.2.8 0 1.4.6 1.4 1.4zm78.3-.7c0 .5-.5 1-1.1 1-.5 0-.7-.5-.4-1 .3-.6.8-1 1.1-1 .2 0 .4.4.4 1zm7.7 1c-.1 2.1-1 1.8-1.3-.5-.1-.8.2-1.5.6-1.5.5 0 .8.9.7 2zm7.8-1c.3.5.1 1-.4 1-.6 0-1.1-.5-1.1-1 0-.6.2-1 .4-1 .3 0 .8.4 1.1 1zm57.9-.1c-.9.9-3.4.9-3.4.1 0-.5.9-.8 2-.7 1 .1 1.7.3 1.4.6zM113 213.6c0 .8-1.9 1.3-2.4.6-.3-.5.1-.9.9-.9s1.5.2 1.5.3zm4 .6c0 .4-.4.8-.9.8-.6 0-1.2-.4-1.5-.8-.3-.5.1-.9.9-.9s1.5.4 1.5.9zm137.6 1.8c0 1.2-.4 1.6-.9 1.1s-.6-1.4-.3-2c1-1.5 1.2-1.4 1.2.9zM4.5 219c.1 1.7 0 3.2-.4 3.4-.3.2-.7-1.3-.7-3.5-.1-4.5.7-4.5 1.1.1zm97.5-3.5c0 .2-.6.8-1.3 1.4-1 .8-1.4.7-1.4-.2 0-.8.6-1.4 1.4-1.4.7 0 1.3.1 1.3.2zm18.4.3c.3.5-.1.9-.9.9s-1.2-.4-.9-.9c.3-.4.7-.8.9-.8.2 0 .6.4.9.8zm62.6-.4c0 .2-.7.7-1.6 1-.8.3-1.2.2-.9-.4.6-1 2.5-1.4 2.5-.6zm68.5.6c-.3.5-1.2 1-1.8 1-.7 0-.6-.4.3-1 1.9-1.2 2.3-1.2 1.5 0zm-138.5.4c0 .2-.8 1-1.7 1.7-1.6 1.3-1.7 1.2-.4-.4 1.3-1.6 2.1-2.1 2.1-1.3zm83.7 1.1c0 .8-.4 1.2-.9.9-.5-.3-.6-1-.3-1.5.9-1.3 1.2-1.1 1.2.6zM8.1 219.3c-1 .9-1.1.8-.5-.6.3-1 .9-1.5 1.2-1.2.3.3 0 1.1-.7 1.8zm8.3-.7c.3.8.2 1.2-.4.9-.6-.3-1-1-1-1.6 0-1.4.7-1.1 1.4.7zm88 0c.3.8.2 1.2-.4.9-.6-.3-1-1-1-1.6 0-1.4.7-1.1 1.4.7zm10.3.9c0 .8-.4 1.5-.9 1.5-1 0-1.1-1.4-.1-2.3.9-1 1-.9 1 .8zm4.4.2c1.3 1.6 1.2 1.7-.3.4-1-.7-1.8-1.5-1.8-1.7 0-.8.8-.3 2.1 1.3zm59.8-.4c.8 1 .7 1.4-.2 1.4-.8 0-1.4-.6-1.4-1.4 0-.7.1-1.3.2-1.3.2 0 .8.6 1.4 1.3zM13 220c0 .5-.2 1-.4 1-.3 0-.8-.5-1.1-1-.3-.6-.1-1 .4-1 .6 0 1.1.4 1.1 1zm87.7 1c-.1 2.1-1 1.8-1.3-.5-.1-.8.2-1.5.6-1.5.5 0 .8.9.7 2zm83.8-1.1c-.9.8-3.6 1-3 .2.2-.4 1.1-.8 2-.8.8 0 1.3.3 1 .6zm68 .1c.3.5.1 1-.4 1-.6 0-1.1-.5-1.1-1 0-.6.2-1 .4-1 .3 0 .8.4 1.1 1zm-143.5.4c0 .2-.8 1-1.7 1.7-1.6 1.3-1.7 1.2-.4-.4 1.3-1.6 2.1-2.1 2.1-1.3zm87.7.9c0 .8-.6 1.4-1.4 1.4-.9 0-1-.4-.2-1.4.6-.7 1.2-1.3 1.4-1.3.1 0 .2.6.2 1.3zm-187.3.5c.2.4-.4.8-1.4.8-1 0-1.6-.4-1.4-.8.3-.4.9-.8 1.4-.8.5 0 1.1.4 1.4.8zm7 0c.3.5-.1.9-.9.9s-1.2-.4-.9-.9c.3-.4.7-.8.9-.8.2 0 .6.4.9.8zm169.9 1.7c-.3.9-.8 1.4-1 1.1-.3-.3-.2-.9.2-1.5.9-1.6 1.5-1.3.8.4zm-12.2 1.8c-1 .9-1.1.8-.5-.6.3-1 .9-1.5 1.2-1.2.3.3 0 1.1-.7 1.8zM251 224c0 .5-.4 1-1 1-.5 0-1-.5-1-1 0-.6.5-1 1-1 .6 0 1 .4 1 1zM9 226.4c-.7.7-1.3.7-2 0-.6-.6-.3-1 1-1s1.6.4 1 1zm3.7.1c0 .8-.4 1.2-.9.9-.5-.3-.6-1-.3-1.5.9-1.3 1.2-1.1 1.2.6zm6.3 1c1.4 1.9 1.4 1.9-.2.6-1-.7-1.8-1.8-1.8-2.4 0-.6.1-.8.3-.6.1.2.9 1.3 1.7 2.4zm86-1.1c-.7.7-1.3.7-2 0-.6-.6-.3-1 1-1s1.6.4 1 1zm3.7.1c0 .8-.4 1.2-.9.9-.5-.3-.6-1-.3-1.5.9-1.3 1.2-1.1 1.2.6zm8 .2c0 .9-.4 1-1.4.2-.7-.6-1.3-1.2-1.3-1.4 0-.1.6-.2 1.3-.2.8 0 1.4.6 1.4 1.4zm67.8-.8c.3.5.2 1.2-.3 1.5-.5.3-.9-.1-.9-.9 0-1.7.3-1.9 1.2-.6zm9 0c-.9.8-3.6 1-3 .2.2-.4 1.1-.8 2-.8.8 0 1.3.3 1 .6zm3.2 1.1c.1 1.1-.2 2-.7 2-.6 0-.7-1.7-.1-3.8.3-.8.7.1.8 1.8zm-174.3 2c-.6.6-1 .3-1-1s.4-1.6 1-1c.7.7.7 1.3 0 2zM5 228c0 .5-.5 1-1.1 1-.5 0-.7-.5-.4-1 .3-.6.8-1 1.1-1 .2 0 .4.4.4 1zm96 0c0 .5-.5 1-1.1 1-.5 0-.7-.5-.4-1 .3-.6.8-1 1.1-1 .2 0 .4.4.4 1zm153.4-.1c-.9.9-3.4.9-3.4.1 0-.5.9-.8 2-.7 1 .1 1.7.3 1.4.6zM8.3 229.5c-.3.9-.8 1.4-1 1.1-.3-.3-.2-.9.2-1.5.9-1.6 1.5-1.3.8.4zm96 0c-.3.9-.8 1.4-1 1.1-.3-.3-.2-.9.2-1.5.9-1.6 1.5-1.3.8.4zm8 0c-.3.9-.8 1.4-1 1.1-.3-.3-.2-.9.2-1.5.9-1.6 1.5-1.3.8.4zm88 0c-.3.9-.8 1.4-1 1.1-.3-.3-.2-.9.2-1.5.9-1.6 1.5-1.3.8.4zm-187.6 1.7c.2 1.7 0 1.9-.7.8-.5-.8-.6-1.8-.4-2.2.8-1.2 1-1 1.1 1.4zM17 230c0 .5-.4 1-1 1-.5 0-1-.5-1-1 0-.6.5-1 1-1 .6 0 1 .4 1 1zm81-.6c0 .2-.8 1-1.7 1.7-1.6 1.3-1.7 1.2-.4-.4 1.3-1.6 2.1-2.1 2.1-1.3zm10.7 1.8c.2 1.7 0 1.9-.7.8-.5-.8-.6-1.8-.4-2.2.8-1.2 1-1 1.1 1.4zm8-.7c0 .8-.4 1.2-.9.9-.5-.3-.6-1-.3-1.5.9-1.3 1.2-1.1 1.2.6zm11.7.1c.3.8.2 1.2-.4.9-.6-.3-1-1-1-1.6 0-1.4.7-1.1 1.4.7zm49.1-.6c-.3.5-1.2 1-1.8 1-.7 0-.6-.4.3-1 1.9-1.2 2.3-1.2 1.5 0zm-77.2 1.5c-.3.9-.8 1.4-1 1.1-.3-.3-.2-.9.2-1.5.9-1.6 1.5-1.3.8.4zm22 0c-.3.9-.8 1.4-1 1.1-.3-.3-.2-.9.2-1.5.9-1.6 1.5-1.3.8.4zm75.2.5c1 1.1 1.6 2 1.3 2-.3 0-1.3-.9-2.3-2-1-1.1-1.6-2-1.3-2 .3 0 1.3.9 2.3 2zm57.1 0c0 1.2-.4 1.6-.9 1.1s-.6-1.4-.3-2c1-1.5 1.2-1.4 1.2.9zm-212.2-.2c.3.5-.1.9-.9.9s-1.2-.4-.9-.9c.3-.4.7-.8.9-.8.2 0 .6.4.9.8zm48 0c.3.5-.1.9-.9.9s-1.2-.4-.9-.9c.3-.4.7-.8.9-.8.2 0 .6.4.9.8zm48 0c.3.5-.1.9-.9.9s-1.2-.4-.9-.9c.3-.4.7-.8.9-.8.2 0 .6.4.9.8zm96 0c.3.5-.1.9-.9.9s-1.2-.4-.9-.9c.3-.4.7-.8.9-.8.2 0 .6.4.9.8zm17.6-.4c0 .2-.8 1-1.7 1.7-1.6 1.3-1.7 1.2-.4-.4 1.3-1.6 2.1-2.1 2.1-1.3zm-75 2.8c0 .4-.4.8-.9.8-.6 0-1.2-.4-1.5-.8-.3-.5.1-.9.9-.9s1.5.4 1.5.9zm36-.4c0 .5-.7.9-1.5.9s-1.2-.4-.9-.9c.3-.4.9-.8 1.5-.8.5 0 .9.4.9.8z"/></svg>